<svg width="176" height="126" viewBox="0 0 176 126" fill="none" xmlns="http://www.w3.org/2000/svg">
<path d="M5.39037 80.6547L5.46783 82.5139C6.69699 81.0678 8.3548 80.3448 10.4413 80.3448C12.786 80.3448 14.3818 81.2434 15.2288 83.0407C15.7865 82.235 16.5096 81.5843 17.3979 81.0885C18.2965 80.5927 19.3552 80.3448 20.5741 80.3448C24.2512 80.3448 26.1207 82.2918 26.1827 86.1859V97.4187H23.3164V86.3563C23.3164 85.1581 23.0427 84.2647 22.4953 83.6759C21.9478 83.0768 21.0285 82.7773 19.7374 82.7773C18.6735 82.7773 17.7904 83.0975 17.088 83.7379C16.3856 84.368 15.9776 85.2201 15.864 86.2943V97.4187H12.9822V86.4338C12.9822 83.9961 11.7892 82.7773 9.4032 82.7773C7.52331 82.7773 6.23735 83.5778 5.5453 85.1788V97.4187H2.67899V80.6547H5.39037ZM33.6351 97.4187H30.7688V80.6547H33.6351V97.4187ZM30.5364 76.208C30.5364 75.7432 30.6758 75.3507 30.9547 75.0305C31.2439 74.7103 31.6674 74.5502 32.2252 74.5502C32.783 74.5502 33.2065 74.7103 33.4957 75.0305C33.7849 75.3507 33.9295 75.7432 33.9295 76.208C33.9295 76.6728 33.7849 77.0602 33.4957 77.37C33.2065 77.6799 32.783 77.8348 32.2252 77.8348C31.6674 77.8348 31.2439 77.6799 30.9547 77.37C30.6758 77.0602 30.5364 76.6728 30.5364 76.208ZM40.9481 80.6547L41.041 82.7618C42.3218 81.1505 43.9951 80.3448 46.061 80.3448C49.6038 80.3448 51.3907 82.3435 51.4217 86.3408V97.4187H48.5554V86.3253C48.5451 85.1168 48.2662 84.2234 47.7188 83.6449C47.1817 83.0665 46.3398 82.7773 45.1933 82.7773C44.2637 82.7773 43.4477 83.0252 42.7453 83.521C42.043 84.0168 41.4955 84.6675 41.103 85.4732V97.4187H38.2367V80.6547H40.9481ZM55.0472 88.8972C55.0472 86.3253 55.6566 84.2595 56.8755 82.6998C58.0943 81.1298 59.6901 80.3448 61.663 80.3448C63.6255 80.3448 65.18 81.0162 66.3265 82.359V73.6206H69.1928V97.4187H66.5589L66.4195 95.6214C65.273 97.0262 63.6771 97.7286 61.632 97.7286C59.6901 97.7286 58.1046 96.9332 56.8755 95.3426C55.6566 93.7519 55.0472 91.6758 55.0472 89.1142V88.8972ZM57.9135 89.2226C57.9135 91.1232 58.306 92.6105 59.091 93.6848C59.876 94.759 60.9606 95.2961 62.3447 95.2961C64.1626 95.2961 65.4899 94.4801 66.3265 92.8481V85.1478C65.4692 83.5675 64.1523 82.7773 62.3757 82.7773C60.9709 82.7773 59.876 83.3196 59.091 84.4041C58.306 85.4887 57.9135 87.0948 57.9135 89.2226ZM75.0649 97.4187V82.8703H72.4155V80.6547H75.0649V78.9349C75.0649 77.1376 75.5452 75.7484 76.5058 74.7671C77.4664 73.7859 78.8247 73.2952 80.5806 73.2952C81.2416 73.2952 81.8975 73.383 82.5483 73.5586L82.3933 75.8827C81.9079 75.7897 81.3914 75.7432 80.844 75.7432C79.9144 75.7432 79.1965 76.0169 78.6904 76.5644C78.1843 77.1015 77.9312 77.8762 77.9312 78.8884V80.6547H81.5102V82.8703H77.9312V97.4187H75.0649ZM95.0361 95.7609C93.9205 97.0727 92.2834 97.7286 90.1246 97.7286C88.3377 97.7286 86.9743 97.2121 86.0343 96.1792C85.1047 95.136 84.6347 93.597 84.6244 91.5621V80.6547H87.4907V91.4847C87.4907 94.0256 88.5236 95.2961 90.5894 95.2961C92.7792 95.2961 94.2356 94.4801 94.9586 92.8481V80.6547H97.8249V97.4187H95.098L95.0361 95.7609ZM105.308 97.4187H102.442V73.6206H105.308V97.4187ZM113.024 97.4187H110.158V80.6547H113.024V97.4187ZM109.925 76.208C109.925 75.7432 110.065 75.3507 110.344 75.0305C110.633 74.7103 111.056 74.5502 111.614 74.5502C112.172 74.5502 112.595 74.7103 112.885 75.0305C113.174 75.3507 113.318 75.7432 113.318 76.208C113.318 76.6728 113.174 77.0602 112.885 77.37C112.595 77.6799 112.172 77.8348 111.614 77.8348C111.056 77.8348 110.633 77.6799 110.344 77.37C110.065 77.0602 109.925 76.6728 109.925 76.208ZM123.157 93.5298L127.309 80.6547H130.237L124.226 97.4187H122.041L115.968 80.6547H118.896L123.157 93.5298ZM136.109 97.4187H133.243V80.6547H136.109V97.4187ZM133.011 76.208C133.011 75.7432 133.15 75.3507 133.429 75.0305C133.718 74.7103 134.142 74.5502 134.7 74.5502C135.257 74.5502 135.681 74.7103 135.97 75.0305C136.259 75.3507 136.404 75.7432 136.404 76.208C136.404 76.6728 136.259 77.0602 135.97 77.37C135.681 77.6799 135.257 77.8348 134.7 77.8348C134.142 77.8348 133.718 77.6799 133.429 77.37C133.15 77.0602 133.011 76.6728 133.011 76.208ZM143.422 80.6547L143.515 82.7618C144.796 81.1505 146.47 80.3448 148.535 80.3448C152.078 80.3448 153.865 82.3435 153.896 86.3408V97.4187H151.03V86.3253C151.019 85.1168 150.741 84.2234 150.193 83.6449C149.656 83.0665 148.814 82.7773 147.668 82.7773C146.738 82.7773 145.922 83.0252 145.22 83.521C144.517 84.0168 143.97 84.6675 143.577 85.4732V97.4187H140.711V80.6547H143.422ZM157.537 88.8972C157.537 86.284 158.141 84.2079 159.35 82.6688C160.558 81.1195 162.159 80.3448 164.153 80.3448C166.198 80.3448 167.794 81.0678 168.94 82.5139L169.08 80.6547H171.698V97.0159C171.698 99.185 171.053 100.894 169.761 102.144C168.481 103.394 166.756 104.019 164.587 104.019C163.378 104.019 162.195 103.761 161.039 103.244C159.882 102.728 158.999 102.02 158.389 101.122L159.877 99.4019C161.106 100.92 162.609 101.679 164.385 101.679C165.78 101.679 166.864 101.287 167.639 100.502C168.424 99.7169 168.816 98.6117 168.816 97.1863V95.7454C167.67 97.0675 166.105 97.7286 164.122 97.7286C162.159 97.7286 160.569 96.9384 159.35 95.3581C158.141 93.7777 157.537 91.6241 157.537 88.8972ZM160.419 89.2226C160.419 91.1128 160.806 92.6002 161.581 93.6848C162.356 94.759 163.44 95.2961 164.835 95.2961C166.642 95.2961 167.969 94.4749 168.816 92.8326V85.1788C167.938 83.5778 166.621 82.7773 164.866 82.7773C163.471 82.7773 162.381 83.3196 161.596 84.4041C160.811 85.4887 160.419 87.0948 160.419 89.2226Z" fill="#807E7E"/>
<path fill-rule="evenodd" clip-rule="evenodd" d="M64.2821 38.8581C62.7011 37.2796 61.1995 34.8085 59.8074 31.494C59.6537 31.5233 59.4973 31.5544 59.34 31.5864C58.7888 31.6954 58.2625 31.8135 57.7519 31.9416C55.0618 32.574 51.8671 33.06 48.1997 33.3963C46.2976 33.5707 44.2684 33.7048 42.1165 33.7983C43.2822 34.8011 45.0466 36.1767 47.1008 37.5387C50.3113 39.6674 54.2296 41.7629 57.6764 42.3503C58.2616 42.4931 58.7815 42.6085 59.3161 42.7128C60.4938 42.9564 61.4388 43.1038 62.2181 43.1633L62.9928 43.2246C63.0463 43.2291 63.1003 43.2332 63.1546 43.237C63.5766 43.2665 64.0232 43.2754 64.4935 43.2713C65.2848 42.7925 66.0945 42.4363 66.9033 42.212C67.3339 42.0921 67.7802 41.985 68.2402 41.8907C67.6319 41.5107 67.0428 41.1109 66.4781 40.6942C66.4773 40.6936 66.4766 40.6931 66.4758 40.6925C65.832 40.2173 65.2199 39.7202 64.6472 39.2054C64.525 39.0949 64.4033 38.9791 64.2821 38.8581ZM58.8612 38.485C58.3865 37.7473 57.9343 36.96 57.5028 36.1305C56.3503 36.373 55.13 36.5908 53.845 36.7845C55.4853 37.5824 57.0351 38.1481 58.3608 38.374L58.5026 38.3981L58.6423 38.4322C58.7166 38.4504 58.7895 38.468 58.8612 38.485Z" fill="#348E91"/>
<path fill-rule="evenodd" clip-rule="evenodd" d="M118.224 36.1337C117.794 36.9616 117.343 37.7473 116.869 38.4837C116.906 38.4744 116.943 38.4652 116.98 38.4559L117.135 38.4166L117.293 38.3897C118.645 38.1591 120.214 37.5874 121.869 36.7846C120.587 36.5916 119.372 36.3748 118.224 36.1337ZM127.525 33.3972C129.428 33.5716 131.458 33.706 133.612 33.8002C132.446 34.8021 130.681 36.177 128.622 37.5395C125.403 39.6705 121.465 41.7711 117.979 42.3658C117.468 42.4949 116.94 42.6121 116.386 42.7211C115.215 42.9609 114.277 43.1074 113.508 43.1642L112.731 43.2274C112.679 43.2317 112.627 43.2356 112.574 43.2393C112.154 43.2683 111.708 43.2772 111.234 43.2731C110.445 42.7952 109.635 42.4391 108.827 42.2157C108.396 42.0948 107.949 41.9868 107.489 41.8925C108.098 41.5122 108.687 41.1123 109.252 40.6955C109.254 40.6938 109.256 40.6921 109.259 40.6904C109.901 40.2158 110.512 39.7192 111.084 39.2045C111.205 39.095 111.326 38.9802 111.446 38.8603C113.026 37.2834 114.528 34.8113 115.921 31.494C116.08 31.5251 116.242 31.5571 116.41 31.5919C116.945 31.6954 117.464 31.8126 117.989 31.9481C120.667 32.5768 123.858 33.0611 127.525 33.3972Z" fill="#348E91"/>
<path fill-rule="evenodd" clip-rule="evenodd" d="M67.3305 51.2108C65.4916 51.4142 63.7315 51.6609 62.3643 51.9421C62.9515 50.6044 63.8892 48.8318 65.1271 47.4123C65.6446 46.819 66.2145 46.2873 66.8332 45.8749C67.5003 45.4007 68.2134 45.0299 68.9504 44.7754C69.2598 44.6687 69.5794 44.5657 69.9117 44.4645C70.8427 44.1812 71.8735 43.9126 73.0587 43.6191C73.4369 43.6996 73.8187 43.7646 74.2015 43.815C73.9871 44.4623 73.8822 45.1077 73.8822 45.7623C73.8821 45.8726 73.8876 45.9835 73.8985 46.0953C73.9156 46.2712 73.9459 46.449 73.9885 46.6291C74.2709 47.8232 75.0938 49.1152 76.1825 50.5862C75.0205 50.6058 73.3238 50.6909 71.4551 50.831C70.1237 50.9309 68.7051 51.0587 67.3305 51.2108Z" fill="#A6D0D1"/>
<path fill-rule="evenodd" clip-rule="evenodd" d="M108.924 45.8942C108.225 45.3989 107.512 45.029 106.778 44.7745C106.47 44.6685 106.151 44.566 105.82 44.4653C104.888 44.1817 103.856 43.9123 102.67 43.6191C102.292 43.6996 101.912 43.7637 101.531 43.8141C101.744 44.4623 101.85 45.1086 101.85 45.7623C101.85 45.87 101.845 45.9784 101.834 46.0875C101.817 46.2659 101.787 46.4464 101.743 46.6291C101.46 47.8229 100.638 49.1153 99.5488 50.5862C100.71 50.6058 102.407 50.6909 104.276 50.8311C105.609 50.931 107.028 51.059 108.404 51.2112C110.241 51.4145 112 51.6611 113.366 51.9421C112.78 50.6022 111.842 48.8278 110.609 47.413C110.097 46.8259 109.534 46.3007 108.924 45.8942Z" fill="#A6D0D1"/>
<path fill-rule="evenodd" clip-rule="evenodd" d="M84.3378 49.2739C85.4967 50.3613 86.7569 51.3766 87.8618 52.2144C88.9644 51.3761 90.2224 50.3607 91.381 49.2739H84.3378ZM95.4708 50.9095C92.8199 53.7138 89.2665 56.2242 87.8651 57.2102C86.4666 56.2288 82.9103 53.7257 80.2614 50.9224C79.4532 50.0638 78.7601 49.1769 78.2344 48.349C77.5487 47.2692 77.1477 46.29 77.1477 45.6059C77.1477 45.3414 77.1699 45.0874 77.2136 44.8404C77.265 44.5488 77.3463 44.2671 77.4559 43.99C79.8114 44.6547 83.2085 45.2397 83.5618 45.2397H92.1666C92.5209 45.2397 95.9179 44.6556 98.2734 43.9927C98.3886 44.2825 98.4722 44.5701 98.5229 44.8705C98.5613 45.0979 98.5807 45.3327 98.5807 45.5812C98.5807 46.2698 98.1747 47.2619 97.4814 48.3538C96.9579 49.1781 96.2707 50.0592 95.4708 50.9095ZM94.5655 45.2062C94.5657 45.2061 94.5644 45.2118 94.5607 45.2235C94.5635 45.2121 94.5653 45.2062 94.5655 45.2062ZM81.1669 45.2437C81.1632 45.2319 81.1618 45.2263 81.162 45.2263C81.1622 45.2264 81.1641 45.2323 81.1669 45.2437Z" fill="#348E91"/>
<path fill-rule="evenodd" clip-rule="evenodd" d="M113.985 28.4828C112.585 32.6338 110.997 35.5819 109.394 37.0101C107.995 38.26 106.32 39.2962 104.406 40.0994C104.096 40.2293 103.781 40.3531 103.459 40.4708C102.599 40.7839 101.715 41.0411 100.831 41.2407C99.6542 41.5007 98.5225 41.65 97.4644 41.682C98.5213 40.8225 99.4658 39.8742 100.287 38.8548C100.29 38.851 100.293 38.8473 100.296 38.8436C100.82 38.1916 101.295 37.5107 101.715 36.8053C103.238 34.254 104.065 31.3834 104.062 28.4124C104.062 26.3467 103.215 23.8188 102.091 21.3186C101.529 20.0688 100.898 18.826 100.27 17.6512C101.457 17.3044 102.783 16.8629 104.17 16.3613C107.14 15.2868 110.39 13.9366 113.159 12.6502C114.855 11.8625 116.371 11.0988 117.532 10.4369C117.381 11.6982 117.158 13.4161 116.866 15.3512C116.235 19.519 115.275 24.6939 113.985 28.4828ZM112.428 17.4051C111.847 20.7994 111.082 24.4355 110.145 27.1884L110.141 27.199C109.232 29.8935 108.344 31.7138 107.625 32.8315C107.949 31.3972 108.118 29.918 108.117 28.4109M112.428 17.4051C110.312 18.327 108.071 19.2311 105.943 20.0111C106.197 20.5888 106.439 21.1725 106.662 21.7566C107.439 23.7879 108.116 26.1356 108.117 28.4094" fill="#A6D0D1"/>
<path fill-rule="evenodd" clip-rule="evenodd" d="M65.5852 27.1905L65.5871 27.1962C66.4953 29.8908 67.383 31.7108 68.1013 32.8279C67.7774 31.3943 67.6087 29.9158 67.6094 28.4094M72.2701 40.4697C71.9475 40.3517 71.6309 40.2276 71.3206 40.0972C69.4097 39.2947 67.7354 38.2588 66.3336 37.0081C64.7298 35.5807 63.1426 32.6309 61.7431 28.479C60.4538 24.6916 59.494 19.5175 58.862 15.35C58.5685 13.4146 58.3457 11.6964 58.1934 10.4349C59.355 11.0967 60.8713 11.8606 62.5676 12.6485C65.3372 13.9348 68.5868 15.2852 71.5573 16.3596C72.9439 16.8611 74.2697 17.3025 75.4574 17.6492C74.829 18.824 74.1982 20.0668 73.6362 21.3166C72.512 23.8167 71.6638 26.3444 71.6638 28.4094C71.6621 31.3812 72.4889 34.2522 74.0115 36.8038C74.4326 37.5094 74.907 38.1907 75.4317 38.8428C75.4336 38.8452 75.4355 38.8476 75.4374 38.85C76.2593 39.8704 77.2047 40.8197 78.2628 41.68C77.2037 41.647 76.0738 41.4987 74.897 41.2387C74.01 41.04 73.1267 40.7819 72.2701 40.4697ZM67.6094 28.4072C67.6098 26.1332 68.2872 23.7852 69.0646 21.754C69.2881 21.1701 69.53 20.5868 69.784 20.0094C67.6558 19.2295 65.4151 18.3256 63.2997 17.404C63.8815 20.798 64.6464 24.4329 65.5832 27.1847L65.5852 27.1905" fill="#A6D0D1"/>
<path fill-rule="evenodd" clip-rule="evenodd" d="M93.6072 19.6921C93.5671 19.6224 91.1882 15.4026 89.2746 11.8988C88.6521 10.7592 88.0789 9.69529 87.6515 8.87462C87.2238 9.69528 86.6505 10.7591 86.0281 11.8988C84.1144 15.4025 81.7358 19.6224 81.6957 19.6921C79.4594 23.5761 78.3264 26.5293 78.3264 28.4703C78.3257 32.9179 80.7753 36.5604 84.5666 37.7477C86.65 38.4279 88.6646 38.4246 90.7265 37.751C94.527 36.5604 96.9772 32.9186 96.9766 28.4703C96.9759 26.5293 95.8428 23.5754 93.6072 19.6921ZM89.412 3.74659C92.2064 8.85485 96.1804 15.84 96.2422 15.9465C99.4156 21.4086 101.024 25.5632 101.025 28.2933C101.026 34.55 97.5478 39.6724 92.1532 41.3469C89.2263 42.2945 86.3666 42.2991 83.4094 41.3423C78.0277 39.6724 74.5506 34.5491 74.5515 28.2933C74.5515 25.5632 76.1599 21.4095 79.3342 15.9465C79.396 15.84 83.3694 8.85476 86.1641 3.74649C86.7812 2.61851 87.3409 1.58205 87.7882 0.731384C88.2354 1.58207 88.7949 2.61857 89.412 3.74659Z" fill="#DD99A3"/>
<path d="M48.8222 119.802H44.3476L43.3322 122.564H42.459L46.1889 112.708H46.9809L50.7109 122.564H49.8444L48.8222 119.802ZM44.6049 119.091H48.5582L46.5815 113.723L44.6049 119.091Z" fill="#807E7E"/>
<path d="M52.7484 115.239L52.7755 116.492C53.0508 116.04 53.3938 115.697 53.8045 115.463C54.2151 115.224 54.6687 115.104 55.1651 115.104C55.9504 115.104 56.5348 115.325 56.9184 115.767C57.302 116.21 57.496 116.873 57.5005 117.758V122.564H56.695V117.751C56.6905 117.097 56.5506 116.609 56.2753 116.289C56.0045 115.968 55.569 115.808 54.9688 115.808C54.4679 115.808 54.0233 115.966 53.6352 116.282C53.2516 116.593 52.9673 117.015 52.7823 117.548V122.564H51.9767V115.239H52.7484Z" fill="#807E7E"/>
<path d="M59.2741 118.834C59.2741 117.688 59.5269 116.781 60.0323 116.113C60.5423 115.44 61.2327 115.104 62.1037 115.104C63.1011 115.104 63.8593 115.501 64.3782 116.295L64.4189 115.239H65.177V122.415C65.177 123.358 64.913 124.105 64.385 124.656C63.857 125.206 63.1417 125.482 62.2391 125.482C61.7292 125.482 61.2418 125.366 60.7769 125.136C60.3166 124.911 59.9533 124.608 59.6871 124.229L60.1406 123.742C60.7137 124.446 61.3952 124.798 62.185 124.798C62.8619 124.798 63.3899 124.597 63.769 124.195C64.1481 123.798 64.3444 123.245 64.3579 122.537V121.616C63.8389 122.338 63.083 122.699 62.0902 122.699C61.2418 122.699 60.5603 122.361 60.0458 121.684C59.5314 121.007 59.2741 120.093 59.2741 118.942V118.834ZM60.0932 118.976C60.0932 119.91 60.2805 120.648 60.6551 121.19C61.0297 121.727 61.5577 121.995 62.2391 121.995C63.2365 121.995 63.9427 121.548 64.3579 120.655V117.25C64.1684 116.781 63.8954 116.424 63.5388 116.18C63.1823 115.932 62.7536 115.808 62.2527 115.808C61.5712 115.808 61.0409 116.077 60.6618 116.614C60.2828 117.146 60.0932 117.934 60.0932 118.976Z" fill="#807E7E"/>
<path d="M70.1254 122.699C69.5027 122.699 68.9385 122.546 68.4331 122.239C67.9322 121.932 67.5418 121.506 67.262 120.96C66.9822 120.409 66.8423 119.793 66.8423 119.112V118.82C66.8423 118.116 66.9777 117.482 67.2485 116.918C67.5237 116.354 67.9051 115.912 68.3925 115.591C68.8799 115.267 69.4079 115.104 69.9765 115.104C70.8656 115.104 71.5696 115.409 72.0886 116.018C72.6121 116.623 72.8738 117.451 72.8738 118.502V118.956H67.6479V119.112C67.6479 119.942 67.8848 120.635 68.3586 121.19C68.837 121.74 69.4372 122.016 70.1593 122.016C70.5925 122.016 70.9739 121.937 71.3033 121.779C71.6373 121.621 71.9396 121.368 72.2104 121.02L72.7181 121.406C72.1224 122.268 71.2582 122.699 70.1254 122.699ZM69.9765 115.795C69.3673 115.795 68.8528 116.018 68.4331 116.465C68.0179 116.911 67.7652 117.512 67.6749 118.265H72.0683V118.177C72.0457 117.473 71.8449 116.9 71.4658 116.458C71.0867 116.016 70.5903 115.795 69.9765 115.795Z" fill="#807E7E"/>
<path d="M75.3582 122.564H74.5459V112.166H75.3582V122.564Z" fill="#807E7E"/>
<path d="M78.4721 122.564H77.6598V112.166H78.4721V122.564Z" fill="#807E7E"/>
<path d="M85.3024 122.564C85.2212 122.334 85.1693 121.993 85.1467 121.542C84.8624 121.912 84.4991 122.198 84.0568 122.401C83.6191 122.6 83.1542 122.699 82.6623 122.699C81.9583 122.699 81.3874 122.503 80.9497 122.11C80.5164 121.718 80.2998 121.221 80.2998 120.621C80.2998 119.908 80.5954 119.344 81.1866 118.929C81.7823 118.514 82.6104 118.306 83.671 118.306H85.1399V117.473C85.1399 116.95 84.9775 116.539 84.6525 116.241C84.3321 115.939 83.8628 115.788 83.2445 115.788C82.6804 115.788 82.2133 115.932 81.8432 116.221C81.4732 116.51 81.2882 116.857 81.2882 117.263L80.4758 117.257C80.4758 116.675 80.7466 116.171 81.2882 115.747C81.8297 115.318 82.4954 115.104 83.2851 115.104C84.102 115.104 84.7451 115.309 85.2144 115.72C85.6883 116.126 85.9319 116.695 85.9455 117.426V120.892C85.9455 121.6 86.02 122.131 86.1689 122.483V122.564H85.3024ZM82.7571 121.982C83.2987 121.982 83.7815 121.851 84.2058 121.589C84.6345 121.327 84.9459 120.978 85.1399 120.54V118.929H83.6913C82.8835 118.938 82.2517 119.087 81.7959 119.376C81.3401 119.66 81.1122 120.052 81.1122 120.553C81.1122 120.964 81.2633 121.305 81.5657 121.576C81.8726 121.846 82.2697 121.982 82.7571 121.982Z" fill="#807E7E"/>
<path d="M92.5118 121.86H97.379V122.564H91.6724V112.708H92.5118V121.86Z" fill="#807E7E"/>
<path d="M103.417 122.564C103.336 122.334 103.284 121.993 103.262 121.542C102.977 121.912 102.614 122.198 102.172 122.401C101.734 122.6 101.269 122.699 100.777 122.699C100.073 122.699 99.5023 122.503 99.0646 122.11C98.6313 121.718 98.4147 121.221 98.4147 120.621C98.4147 119.908 98.7103 119.344 99.3015 118.929C99.8972 118.514 100.725 118.306 101.786 118.306H103.255V117.473C103.255 116.95 103.092 116.539 102.767 116.241C102.447 115.939 101.978 115.788 101.359 115.788C100.795 115.788 100.328 115.932 99.9581 116.221C99.5881 116.51 99.403 116.857 99.403 117.263L98.5907 117.257C98.5907 116.675 98.8615 116.171 99.403 115.747C99.9446 115.318 100.61 115.104 101.4 115.104C102.217 115.104 102.86 115.309 103.329 115.72C103.803 116.126 104.047 116.695 104.06 117.426V120.892C104.06 121.6 104.135 122.131 104.284 122.483V122.564H103.417ZM100.872 121.982C101.414 121.982 101.896 121.851 102.321 121.589C102.749 121.327 103.061 120.978 103.255 120.54V118.929H101.806C100.998 118.938 100.367 119.087 99.9107 119.376C99.4549 119.66 99.227 120.052 99.227 120.553C99.227 120.964 99.3782 121.305 99.6806 121.576C99.9874 121.846 100.385 121.982 100.872 121.982Z" fill="#807E7E"/>
<path d="M107.98 120.878L108.102 121.508L108.264 120.844L110.024 115.239H110.715L112.454 120.797L112.644 121.569L112.8 120.858L114.302 115.239H115.142L113.009 122.564H112.319L110.437 116.756L110.349 116.356L110.261 116.763L108.413 122.564H107.723L105.597 115.239H106.43L107.98 120.878Z" fill="#807E7E"/>
<path d="M117.586 122.564H116.773V115.239H117.586V122.564ZM116.631 113.121C116.631 112.967 116.681 112.839 116.78 112.735C116.879 112.626 117.015 112.572 117.186 112.572C117.358 112.572 117.493 112.626 117.592 112.735C117.696 112.839 117.748 112.967 117.748 113.121C117.748 113.274 117.696 113.403 117.592 113.506C117.493 113.61 117.358 113.662 117.186 113.662C117.015 113.662 116.879 113.61 116.78 113.506C116.681 113.403 116.631 113.274 116.631 113.121Z" fill="#807E7E"/>
<path d="M120.564 115.239L120.591 116.492C120.866 116.04 121.209 115.697 121.62 115.463C122.031 115.224 122.484 115.104 122.981 115.104C123.766 115.104 124.35 115.325 124.734 115.767C125.118 116.21 125.312 116.873 125.316 117.758V122.564H124.511V117.751C124.506 117.097 124.366 116.609 124.091 116.289C123.82 115.968 123.385 115.808 122.784 115.808C122.284 115.808 121.839 115.966 121.451 116.282C121.067 116.593 120.783 117.015 120.598 117.548V122.564H119.792V115.239H120.564Z" fill="#807E7E"/>
<path d="M126.968 118.793C126.968 118.089 127.103 117.455 127.374 116.891C127.649 116.327 128.035 115.889 128.532 115.578C129.033 115.262 129.599 115.104 130.231 115.104C131.206 115.104 131.995 115.447 132.6 116.133C133.205 116.814 133.507 117.719 133.507 118.848V119.017C133.507 119.725 133.37 120.364 133.094 120.932C132.823 121.497 132.44 121.932 131.943 122.239C131.447 122.546 130.881 122.699 130.244 122.699C129.274 122.699 128.484 122.359 127.875 121.677C127.27 120.991 126.968 120.084 126.968 118.956V118.793ZM127.78 119.017C127.78 119.892 128.006 120.612 128.457 121.176C128.913 121.736 129.509 122.016 130.244 122.016C130.975 122.016 131.567 121.736 132.018 121.176C132.474 120.612 132.702 119.87 132.702 118.949V118.793C132.702 118.234 132.598 117.722 132.39 117.257C132.183 116.792 131.892 116.433 131.517 116.18C131.142 115.923 130.714 115.795 130.231 115.795C129.509 115.795 128.92 116.079 128.464 116.647C128.008 117.212 127.78 117.952 127.78 118.868V119.017Z" fill="#807E7E"/>
<line x1="2.97192" y1="117.285" x2="35.5924" y2="117.285" stroke="#807E7E" stroke-width="0.772666"/>
<line x1="140.793" y1="117.285" x2="173.414" y2="117.285" stroke="#807E7E" stroke-width="0.772666"/>
</svg>
