<svg width="218" height="156" viewBox="0 0 218 156" fill="none" xmlns="http://www.w3.org/2000/svg">
<path d="M6.07706 100.611L6.17383 102.933C7.70922 101.127 9.78007 100.223 12.3864 100.223C15.3152 100.223 17.3087 101.346 18.3667 103.591C19.0634 102.585 19.9666 101.772 21.0762 101.152C22.1987 100.533 23.5212 100.223 25.0437 100.223C29.637 100.223 31.9723 102.656 32.0497 107.52V121.551H28.4693V107.733C28.4693 106.236 28.1274 105.12 27.4435 104.385C26.7597 103.636 25.6114 103.262 23.9986 103.262C22.6696 103.262 21.5665 103.662 20.6891 104.462C19.8117 105.249 19.3021 106.313 19.1602 107.655V121.551H15.5604V107.83C15.5604 104.785 14.0701 103.262 11.0897 103.262C8.74142 103.262 7.13506 104.262 6.2706 106.262V121.551H2.69016V100.611H6.07706ZM41.3588 121.551H37.7784V100.611H41.3588V121.551ZM37.4881 95.0561C37.4881 94.4755 37.6623 93.9852 38.0107 93.5852C38.3719 93.1852 38.9009 92.9852 39.5977 92.9852C40.2944 92.9852 40.8234 93.1852 41.1847 93.5852C41.5459 93.9852 41.7266 94.4755 41.7266 95.0561C41.7266 95.6367 41.5459 96.1205 41.1847 96.5076C40.8234 96.8947 40.2944 97.0882 39.5977 97.0882C38.9009 97.0882 38.3719 96.8947 38.0107 96.5076C37.6623 96.1205 37.4881 95.6367 37.4881 95.0561ZM50.4938 100.611L50.6099 103.243C52.2098 101.23 54.3 100.223 56.8805 100.223C61.306 100.223 63.5382 102.72 63.5769 107.713V121.551H59.9964V107.694C59.9835 106.184 59.6352 105.068 58.9513 104.346C58.2804 103.623 57.2289 103.262 55.7967 103.262C54.6355 103.262 53.6162 103.572 52.7388 104.191C51.8614 104.81 51.1776 105.623 50.6873 106.63V121.551H47.1069V100.611H50.4938ZM68.1056 110.907C68.1056 107.694 68.8669 105.114 70.3894 103.165C71.9119 101.204 73.9053 100.223 76.3697 100.223C78.8211 100.223 80.763 101.062 82.1951 102.739V91.824H85.7756V121.551H82.4854L82.3113 119.306C80.8791 121.061 78.8857 121.938 76.331 121.938C73.9053 121.938 71.9248 120.945 70.3894 118.958C68.8669 116.971 68.1056 114.378 68.1056 111.178V110.907ZM71.6861 111.313C71.6861 113.687 72.1764 115.545 73.157 116.887C74.1375 118.229 75.4923 118.9 77.2212 118.9C79.4921 118.9 81.15 117.881 82.1951 115.842V106.223C81.1242 104.249 79.4792 103.262 77.2599 103.262C75.5052 103.262 74.1375 103.939 73.157 105.294C72.1764 106.649 71.6861 108.655 71.6861 111.313ZM93.1106 121.551V103.378H89.8011V100.611H93.1106V98.4623C93.1106 96.2173 93.7106 94.4819 94.9105 93.2562C96.1104 92.0304 97.8071 91.4176 100.001 91.4176C100.826 91.4176 101.646 91.5272 102.458 91.7466L102.265 94.6496C101.658 94.5335 101.013 94.4755 100.33 94.4755C99.1683 94.4755 98.2716 94.8174 97.6394 95.5012C97.0072 96.1721 96.6911 97.1398 96.6911 98.4043V100.611H101.162V103.378H96.6911V121.551H93.1106ZM118.058 119.48C116.664 121.119 114.619 121.938 111.922 121.938C109.69 121.938 107.987 121.293 106.813 120.003C105.652 118.7 105.065 116.777 105.052 114.236V100.611H108.632V114.139C108.632 117.313 109.923 118.9 112.503 118.9C115.238 118.9 117.058 117.881 117.961 115.842V100.611H121.541V121.551H118.135L118.058 119.48ZM130.889 121.551H127.309V91.824H130.889V121.551ZM140.527 121.551H136.947V100.611H140.527V121.551ZM136.656 95.0561C136.656 94.4755 136.831 93.9852 137.179 93.5852C137.54 93.1852 138.069 92.9852 138.766 92.9852C139.463 92.9852 139.992 93.1852 140.353 93.5852C140.714 93.9852 140.895 94.4755 140.895 95.0561C140.895 95.6367 140.714 96.1205 140.353 96.5076C139.992 96.8947 139.463 97.0882 138.766 97.0882C138.069 97.0882 137.54 96.8947 137.179 96.5076C136.831 96.1205 136.656 95.6367 136.656 95.0561ZM153.184 116.693L158.371 100.611H162.029L154.52 121.551H151.791L144.204 100.611H147.862L153.184 116.693ZM169.364 121.551H165.784V100.611H169.364V121.551ZM165.493 95.0561C165.493 94.4755 165.668 93.9852 166.016 93.5852C166.377 93.1852 166.906 92.9852 167.603 92.9852C168.3 92.9852 168.829 93.1852 169.19 93.5852C169.551 93.9852 169.732 94.4755 169.732 95.0561C169.732 95.6367 169.551 96.1205 169.19 96.5076C168.829 96.8947 168.3 97.0882 167.603 97.0882C166.906 97.0882 166.377 96.8947 166.016 96.5076C165.668 96.1205 165.493 95.6367 165.493 95.0561ZM178.499 100.611L178.615 103.243C180.215 101.23 182.305 100.223 184.886 100.223C189.311 100.223 191.543 102.72 191.582 107.713V121.551H188.002V107.694C187.989 106.184 187.641 105.068 186.957 104.346C186.286 103.623 185.234 103.262 183.802 103.262C182.641 103.262 181.622 103.572 180.744 104.191C179.867 104.81 179.183 105.623 178.693 106.63V121.551H175.112V100.611H178.499ZM196.13 110.907C196.13 107.642 196.885 105.049 198.395 103.127C199.904 101.191 201.904 100.223 204.394 100.223C206.949 100.223 208.942 101.127 210.375 102.933L210.549 100.611H213.82V121.048C213.82 123.758 213.013 125.893 211.4 127.454C209.8 129.015 207.646 129.796 204.936 129.796C203.427 129.796 201.949 129.473 200.504 128.828C199.059 128.183 197.956 127.299 197.195 126.177L199.053 124.029C200.588 125.925 202.465 126.874 204.685 126.874C206.426 126.874 207.781 126.383 208.749 125.403C209.73 124.422 210.22 123.042 210.22 121.261V119.461C208.788 121.113 206.833 121.938 204.356 121.938C201.904 121.938 199.917 120.951 198.395 118.977C196.885 117.003 196.13 114.313 196.13 110.907ZM199.73 111.313C199.73 113.674 200.214 115.532 201.182 116.887C202.149 118.229 203.504 118.9 205.246 118.9C207.504 118.9 209.162 117.874 210.22 115.823V106.262C209.123 104.262 207.478 103.262 205.285 103.262C203.543 103.262 202.182 103.939 201.201 105.294C200.22 106.649 199.73 108.655 199.73 111.313Z" fill="#A6D0D1"/>
<path fill-rule="evenodd" clip-rule="evenodd" d="M80.8947 47.6256C78.9857 45.6538 77.1725 42.5671 75.4915 38.4268C75.3059 38.4634 75.1171 38.5022 74.9271 38.5423C74.2615 38.6784 73.626 38.8259 73.0094 38.986C69.7611 39.7759 65.9033 40.3829 61.4749 40.803C59.1781 41.0209 56.7277 41.1885 54.1293 41.3053C55.5369 42.5578 57.6675 44.2761 60.148 45.9775C64.0247 48.6365 68.7562 51.2542 72.9183 51.9879C73.6249 52.1663 74.2527 52.3104 74.8982 52.4408C76.3203 52.745 77.4614 52.9291 78.4024 53.0034L79.3379 53.08C79.4026 53.0856 79.4677 53.0908 79.5333 53.0955C80.0429 53.1323 80.5821 53.1434 81.1501 53.1384C82.1056 52.5402 83.0833 52.0954 84.0599 51.8152C84.5799 51.6654 85.1188 51.5316 85.6743 51.4138C84.9397 50.9391 84.2284 50.4397 83.5465 49.9192C83.5456 49.9185 83.5447 49.9178 83.5437 49.9171C82.7663 49.3235 82.0272 48.7025 81.3356 48.0595C81.1881 47.9214 81.0411 47.7768 80.8947 47.6256ZM74.3489 47.1596C73.7757 46.2381 73.2297 45.2547 72.7086 44.2185C71.3169 44.5214 69.8435 44.7934 68.2917 45.0354C70.2725 46.0322 72.1439 46.7387 73.7447 47.0209L73.9159 47.0511L74.0846 47.0937C74.1744 47.1163 74.2624 47.1383 74.3489 47.1596Z" fill="#A6D0D1"/>
<path fill-rule="evenodd" clip-rule="evenodd" d="M146.031 44.2225C145.511 45.2566 144.966 46.2381 144.395 47.1579C144.44 47.1464 144.484 47.1348 144.529 47.1232L144.716 47.0741L144.907 47.0405C146.539 46.7525 148.434 46.0384 150.432 45.0355C148.885 44.7945 147.417 44.5237 146.031 44.2225ZM157.263 40.8042C159.56 41.022 162.012 41.19 164.612 41.3076C163.204 42.5591 161.073 44.2766 158.587 45.9785C154.699 48.6405 149.944 51.2644 145.734 52.0073C145.118 52.1686 144.48 52.3149 143.811 52.451C142.398 52.7507 141.265 52.9336 140.336 53.0046L139.398 53.0835C139.335 53.0888 139.272 53.0938 139.208 53.0984C138.701 53.1346 138.163 53.1457 137.59 53.1406C136.637 52.5437 135.659 52.0988 134.684 51.8198C134.163 51.6688 133.624 51.5339 133.068 51.4161C133.803 50.941 134.515 50.4415 135.197 49.9208C135.199 49.9187 135.202 49.9166 135.205 49.9145C135.981 49.3216 136.719 48.7013 137.409 48.0584C137.555 47.9215 137.701 47.7782 137.846 47.6283C139.754 45.6586 141.568 42.5706 143.25 38.4268C143.442 38.4656 143.638 38.5057 143.84 38.5491C144.487 38.6784 145.113 38.8247 145.747 38.994C148.981 39.7794 152.834 40.3843 157.263 40.8042Z" fill="#A6D0D1"/>
<path fill-rule="evenodd" clip-rule="evenodd" d="M84.5758 63.0559C82.3554 63.3099 80.23 63.6182 78.579 63.9695C79.2881 62.2984 80.4204 60.0842 81.9152 58.3111C82.5401 57.5699 83.2283 56.9058 83.9754 56.3906C84.7809 55.7982 85.6419 55.3351 86.5319 55.0171C86.9055 54.8839 87.2914 54.7552 87.6927 54.6288C88.8168 54.2749 90.0616 53.9394 91.4927 53.5728C91.9494 53.6734 92.4105 53.7546 92.8727 53.8175C92.6138 54.626 92.4871 55.4323 92.4871 56.25C92.4871 56.3877 92.4937 56.5263 92.5068 56.6659C92.5274 56.8856 92.564 57.1077 92.6154 57.3327C92.9565 58.8243 93.9501 60.4382 95.2648 62.2757C93.8617 62.3002 91.8128 62.4064 89.5564 62.5815C87.9487 62.7062 86.2357 62.8659 84.5758 63.0559Z" fill="#A6D0D1"/>
<path fill-rule="evenodd" clip-rule="evenodd" d="M134.801 56.4147C133.957 55.796 133.096 55.3339 132.21 55.016C131.837 54.8836 131.452 54.7556 131.053 54.6299C129.927 54.2755 128.681 53.9391 127.249 53.5728C126.792 53.6734 126.333 53.7534 125.873 53.8163C126.131 54.626 126.259 55.4334 126.259 56.25C126.259 56.3845 126.252 56.5199 126.24 56.6562C126.219 56.8791 126.182 57.1045 126.13 57.3327C125.788 58.824 124.795 60.4384 123.48 62.2757C124.882 62.3002 126.932 62.4065 129.189 62.5816C130.797 62.7064 132.512 62.8662 134.173 63.0564C136.391 63.3104 138.515 63.6184 140.165 63.9695C139.456 62.2957 138.325 60.0792 136.835 58.312C136.217 57.5785 135.537 56.9225 134.801 56.4147Z" fill="#A6D0D1"/>
<path fill-rule="evenodd" clip-rule="evenodd" d="M105.113 60.6365C106.512 61.9948 108.034 63.2631 109.368 64.3096C110.699 63.2625 112.218 61.9941 113.617 60.6365H105.113ZM118.556 62.6797C115.355 66.1826 111.064 69.3184 109.372 70.5501C107.683 69.3241 103.389 66.1975 100.19 62.6957C99.2143 61.6232 98.3774 60.5153 97.7426 59.4812C96.9145 58.1323 96.4303 56.9091 96.4303 56.0546C96.4303 55.7243 96.4572 55.4069 96.5098 55.0985C96.572 54.7342 96.6701 54.3823 96.8025 54.0361C99.6468 54.8664 103.749 55.5972 104.175 55.5972H114.566C114.994 55.5972 119.096 54.8675 121.94 54.0396C122.079 54.4015 122.18 54.7608 122.241 55.1361C122.288 55.4201 122.311 55.7133 122.311 56.0238C122.311 56.8839 121.821 58.1233 120.984 59.4872C120.352 60.5168 119.522 61.6175 118.556 62.6797ZM117.463 55.5553C117.463 55.5552 117.461 55.5623 117.457 55.5769C117.46 55.5627 117.462 55.5554 117.463 55.5553ZM101.284 55.6022C101.279 55.5875 101.277 55.5804 101.278 55.5805C101.278 55.5806 101.28 55.5879 101.284 55.6022Z" fill="#A6D0D1"/>
<path fill-rule="evenodd" clip-rule="evenodd" d="M140.912 34.6655C139.221 39.8507 137.305 43.5332 135.369 45.3173C133.679 46.8786 131.657 48.173 129.345 49.1763C128.972 49.3386 128.59 49.4933 128.202 49.6402C127.163 50.0313 126.096 50.3527 125.028 50.602C123.607 50.9268 122.241 51.1132 120.963 51.1532C122.239 50.0795 123.38 48.895 124.372 47.6216C124.375 47.6169 124.379 47.6123 124.383 47.6076C125.016 46.7932 125.588 45.9426 126.096 45.0615C127.935 41.8745 128.933 38.2887 128.931 34.5775C128.931 31.9972 127.907 28.8395 126.55 25.7164C125.871 24.1552 125.109 22.6027 124.351 21.1353C125.785 20.7021 127.385 20.1506 129.06 19.5239C132.646 18.1818 136.571 16.4952 139.915 14.8882C141.963 13.9043 143.793 12.9503 145.195 12.1235C145.012 13.6991 144.744 15.8451 144.39 18.2622C143.629 23.4684 142.47 29.9326 140.912 34.6655ZM139.033 20.8278C138.331 25.0678 137.407 29.6098 136.275 33.0486L136.271 33.0619C135.173 36.4277 134.101 38.7015 133.232 40.0976C133.624 38.306 133.827 36.4583 133.826 34.5757M139.033 20.8278C136.477 21.9795 133.771 23.1088 131.201 24.0832C131.508 24.8047 131.8 25.5338 132.07 26.2634C133.008 28.8009 133.826 31.7335 133.826 34.5739" fill="#A6D0D1"/>
<path fill-rule="evenodd" clip-rule="evenodd" d="M82.4681 33.0508L82.4704 33.0579C83.5672 36.4238 84.6391 38.6973 85.5063 40.0928C85.1152 38.302 84.9116 36.4551 84.9124 34.5734M90.5403 49.6384C90.1507 49.4911 89.7685 49.336 89.3938 49.1732C87.0863 48.1708 85.0646 46.8767 83.3718 45.3144C81.4353 43.5314 79.5187 39.8467 77.8288 34.6603C76.2719 29.9293 75.1129 23.4661 74.3498 18.2603C73.9953 15.8428 73.7263 13.6964 73.5424 12.1206C74.9451 12.9473 76.776 13.9015 78.8244 14.8857C82.1687 16.4926 86.0927 18.1793 89.6796 19.5214C91.354 20.1479 92.9548 20.6993 94.389 21.1324C93.6303 22.5998 92.8685 24.1523 92.1899 25.7134C90.8325 28.8365 89.8082 31.9939 89.8082 34.5734C89.8062 38.2856 90.8046 41.8719 92.6432 45.0592C93.1516 45.9406 93.7244 46.7916 94.358 47.6063C94.3603 47.6092 94.3626 47.6122 94.3649 47.6152C95.3574 48.8899 96.4989 50.0756 97.7766 51.1503C96.4978 51.1091 95.1334 50.9238 93.7124 50.5991C92.6413 50.3509 91.5747 50.0284 90.5403 49.6384ZM84.9124 34.5707C84.9129 31.7301 85.7309 28.7971 86.6696 26.2598C86.9394 25.5305 87.2316 24.8018 87.5383 24.0806C84.9685 23.1063 82.2628 21.9773 79.7083 20.826C80.4109 25.0657 81.3346 29.6062 82.4658 33.0436L82.4681 33.0508" fill="#A6D0D1"/>
<path fill-rule="evenodd" clip-rule="evenodd" d="M116.305 23.6847C116.257 23.5976 113.384 18.3264 111.074 13.9498C110.322 12.5262 109.63 11.1972 109.114 10.1721C108.597 11.1972 107.905 12.5261 107.154 13.9497C104.843 18.3264 101.971 23.5976 101.922 23.6847C99.2217 28.5363 97.8535 32.2253 97.8535 34.6499C97.8527 40.2057 100.811 44.7557 105.389 46.2387C107.904 47.0884 110.337 47.0843 112.827 46.2428C117.416 44.7557 120.375 40.2065 120.374 34.6499C120.373 32.2253 119.005 28.5355 116.305 23.6847ZM111.24 3.76642C114.614 10.1474 119.413 18.8729 119.487 19.0059C123.319 25.8288 125.261 31.0186 125.263 34.4289C125.264 42.2444 121.064 48.643 114.55 50.7347C111.015 51.9183 107.562 51.924 103.991 50.729C97.4928 48.643 93.2942 42.2433 93.2953 34.4289C93.2953 31.0186 95.2374 25.8299 99.0705 19.0059C99.1452 18.8729 103.943 10.1473 107.318 3.76631C108.063 2.3573 108.739 1.06261 109.279 0C109.819 1.06264 110.495 2.35737 111.24 3.76642Z" fill="#A6D0D1"/>
<path d="M59.498 148.736H53.9086L52.6403 152.186H51.5494L56.2087 139.874H57.198L61.8572 152.186H60.7749L59.498 148.736ZM54.23 147.848H59.1682L56.6991 141.143L54.23 147.848Z" fill="#A6D0D1"/>
<path d="M64.4025 143.037L64.4363 144.601C64.7802 144.037 65.2086 143.609 65.7216 143.316C66.2346 143.017 66.8011 142.868 67.4212 142.868C68.4021 142.868 69.1322 143.144 69.6113 143.696C70.0905 144.249 70.3329 145.077 70.3385 146.182V152.186H69.3323V146.174C69.3266 145.356 69.1519 144.748 68.808 144.347C68.4698 143.947 67.9258 143.747 67.176 143.747C66.5503 143.747 65.995 143.944 65.5102 144.339C65.031 144.728 64.6759 145.255 64.4447 145.92V152.186H63.4385V143.037H64.4025Z" fill="#A6D0D1"/>
<path d="M72.554 147.527C72.554 146.095 72.8697 144.962 73.5011 144.128C74.1381 143.288 75.0006 142.868 76.0886 142.868C77.3344 142.868 78.2815 143.364 78.9298 144.356L78.9805 143.037H79.9276V152C79.9276 153.178 79.5978 154.111 78.9382 154.799C78.2787 155.487 77.3851 155.831 76.2577 155.831C75.6207 155.831 75.0118 155.687 74.4312 155.399C73.8562 155.117 73.4024 154.74 73.0698 154.266L73.6363 153.657C74.3523 154.537 75.2035 154.977 76.19 154.977C77.0356 154.977 77.6952 154.726 78.1687 154.224C78.6423 153.728 78.8875 153.037 78.9044 152.152V151.002C78.2561 151.904 77.3119 152.355 76.0717 152.355C75.0118 152.355 74.1606 151.932 73.518 151.087C72.8753 150.241 72.554 149.1 72.554 147.662V147.527ZM73.5772 147.704C73.5772 148.871 73.8111 149.793 74.279 150.47C74.7469 151.14 75.4065 151.476 76.2577 151.476C77.5035 151.476 78.3858 150.918 78.9044 149.801V145.548C78.6676 144.962 78.3266 144.517 77.8812 144.212C77.4359 143.902 76.9003 143.747 76.2746 143.747C75.4234 143.747 74.761 144.082 74.2875 144.753C73.8139 145.419 73.5772 146.402 73.5772 147.704Z" fill="#A6D0D1"/>
<path d="M86.1089 152.355C85.3309 152.355 84.6262 152.164 83.9949 151.78C83.3691 151.397 82.8815 150.864 82.532 150.182C82.1825 149.494 82.0077 148.725 82.0077 147.874V147.51C82.0077 146.631 82.1768 145.838 82.5151 145.134C82.859 144.429 83.3353 143.877 83.9441 143.476C84.553 143.071 85.2125 142.868 85.9228 142.868C87.0334 142.868 87.9128 143.248 88.5611 144.009C89.215 144.765 89.542 145.799 89.542 147.113V147.679H83.014V147.874C83.014 148.911 83.3099 149.776 83.9019 150.47C84.4994 151.157 85.2492 151.501 86.1511 151.501C86.6923 151.501 87.1687 151.402 87.5802 151.205C87.9973 151.008 88.375 150.692 88.7133 150.258L89.3475 150.74C88.6034 151.817 87.5238 152.355 86.1089 152.355ZM85.9228 143.73C85.1618 143.73 84.5191 144.009 83.9949 144.567C83.4762 145.125 83.1606 145.875 83.0478 146.817H88.5357V146.707C88.5075 145.827 88.2567 145.111 87.7831 144.559C87.3096 144.006 86.6895 143.73 85.9228 143.73Z" fill="#A6D0D1"/>
<path d="M92.6453 152.186H91.6306V139.198H92.6453V152.186Z" fill="#A6D0D1"/>
<path d="M96.535 152.186H95.5203V139.198H96.535V152.186Z" fill="#A6D0D1"/>
<path d="M105.067 152.186C104.966 151.899 104.901 151.473 104.873 150.909C104.517 151.371 104.064 151.729 103.511 151.983C102.964 152.231 102.384 152.355 101.769 152.355C100.89 152.355 100.177 152.11 99.6299 151.62C99.0887 151.129 98.8181 150.509 98.8181 149.759C98.8181 148.869 99.1874 148.164 99.9259 147.645C100.67 147.127 101.704 146.867 103.029 146.867H104.864V145.827C104.864 145.173 104.661 144.66 104.255 144.288C103.855 143.911 103.269 143.722 102.496 143.722C101.792 143.722 101.208 143.902 100.746 144.263C100.284 144.624 100.053 145.058 100.053 145.565L99.038 145.557C99.038 144.829 99.3762 144.201 100.053 143.671C100.729 143.135 101.561 142.868 102.547 142.868C103.568 142.868 104.371 143.124 104.957 143.637C105.549 144.144 105.853 144.855 105.87 145.768V150.097C105.87 150.983 105.963 151.645 106.149 152.085V152.186H105.067ZM101.888 151.459C102.564 151.459 103.167 151.295 103.697 150.968C104.233 150.641 104.622 150.205 104.864 149.658V147.645H103.055C102.045 147.657 101.256 147.843 100.687 148.203C100.118 148.558 99.8328 149.049 99.8328 149.675C99.8328 150.188 100.022 150.613 100.399 150.952C100.783 151.29 101.279 151.459 101.888 151.459Z" fill="#A6D0D1"/>
<path d="M114.073 151.307H120.152V152.186H113.024V139.874H114.073V151.307Z" fill="#A6D0D1"/>
<path d="M127.695 152.186C127.594 151.899 127.529 151.473 127.501 150.909C127.146 151.371 126.692 151.729 126.139 151.983C125.592 152.231 125.012 152.355 124.397 152.355C123.518 152.355 122.805 152.11 122.258 151.62C121.717 151.129 121.446 150.509 121.446 149.759C121.446 148.869 121.815 148.164 122.554 147.645C123.298 147.127 124.333 146.867 125.657 146.867H127.492V145.827C127.492 145.173 127.289 144.66 126.883 144.288C126.483 143.911 125.897 143.722 125.125 143.722C124.42 143.722 123.836 143.902 123.374 144.263C122.912 144.624 122.681 145.058 122.681 145.565L121.666 145.557C121.666 144.829 122.004 144.201 122.681 143.671C123.357 143.135 124.189 142.868 125.175 142.868C126.196 142.868 126.999 143.124 127.585 143.637C128.177 144.144 128.482 144.855 128.498 145.768V150.097C128.498 150.983 128.591 151.645 128.778 152.085V152.186H127.695ZM124.516 151.459C125.192 151.459 125.795 151.295 126.325 150.968C126.861 150.641 127.25 150.205 127.492 149.658V147.645H125.683C124.674 147.657 123.884 147.843 123.315 148.203C122.746 148.558 122.461 149.049 122.461 149.675C122.461 150.188 122.65 150.613 123.027 150.952C123.411 151.29 123.907 151.459 124.516 151.459Z" fill="#A6D0D1"/>
<path d="M133.394 150.081L133.547 150.867L133.75 150.038L135.948 143.037H136.811L138.984 149.979L139.221 150.943L139.415 150.055L141.292 143.037H142.341L139.677 152.186H138.815L136.464 144.931L136.354 144.432L136.244 144.939L133.936 152.186H133.073L130.418 143.037H131.458L133.394 150.081Z" fill="#A6D0D1"/>
<path d="M145.393 152.186H144.379V143.037H145.393V152.186ZM144.201 140.39C144.201 140.198 144.263 140.038 144.387 139.908C144.511 139.773 144.68 139.705 144.895 139.705C145.109 139.705 145.278 139.773 145.402 139.908C145.532 140.038 145.596 140.198 145.596 140.39C145.596 140.582 145.532 140.742 145.402 140.872C145.278 141.002 145.109 141.067 144.895 141.067C144.68 141.067 144.511 141.002 144.387 140.872C144.263 140.742 144.201 140.582 144.201 140.39Z" fill="#A6D0D1"/>
<path d="M149.114 143.037L149.148 144.601C149.492 144.037 149.92 143.609 150.433 143.316C150.946 143.017 151.513 142.868 152.133 142.868C153.114 142.868 153.844 143.144 154.323 143.696C154.802 144.249 155.044 145.077 155.05 146.182V152.186H154.044V146.174C154.038 145.356 153.863 144.748 153.52 144.347C153.181 143.947 152.637 143.747 151.888 143.747C151.262 143.747 150.707 143.944 150.222 144.339C149.743 144.728 149.387 145.255 149.156 145.92V152.186H148.15V143.037H149.114Z" fill="#A6D0D1"/>
<path d="M157.113 147.476C157.113 146.597 157.282 145.805 157.621 145.1C157.965 144.395 158.447 143.849 159.067 143.46C159.692 143.065 160.4 142.868 161.189 142.868C162.407 142.868 163.393 143.296 164.149 144.153C164.904 145.004 165.282 146.134 165.282 147.544V147.755C165.282 148.64 165.11 149.438 164.766 150.148C164.428 150.853 163.949 151.397 163.328 151.78C162.708 152.164 162.001 152.355 161.206 152.355C159.994 152.355 159.007 151.93 158.246 151.078C157.491 150.221 157.113 149.088 157.113 147.679V147.476ZM158.128 147.755C158.128 148.849 158.41 149.748 158.974 150.453C159.543 151.152 160.287 151.501 161.206 151.501C162.119 151.501 162.858 151.152 163.421 150.453C163.991 149.748 164.276 148.821 164.276 147.671V147.476C164.276 146.777 164.146 146.137 163.887 145.557C163.627 144.976 163.264 144.528 162.796 144.212C162.328 143.891 161.792 143.73 161.189 143.73C160.287 143.73 159.551 144.085 158.982 144.796C158.413 145.5 158.128 146.425 158.128 147.569V147.755Z" fill="#A6D0D1"/>
<line x1="2.22449" y1="145.591" x2="42.9722" y2="145.591" stroke="#A3A3A3" stroke-width="0.965171"/>
<line x1="174.383" y1="145.591" x2="215.131" y2="145.591" stroke="#A3A3A3" stroke-width="0.965171"/>
</svg>
