<svg width="280" height="68" viewBox="0 0 280 68" fill="none" xmlns="http://www.w3.org/2000/svg">
<path d="M125.458 21.8479L125.554 23.4023C126.6 22.1826 128.03 21.5728 129.846 21.5728C131.836 21.5728 133.198 22.3339 133.931 23.8562C135.014 22.3339 136.536 21.5728 138.498 21.5728C140.14 21.5728 141.36 22.0267 142.157 22.9346C142.964 23.8425 143.377 25.1814 143.395 26.9513V36.7317H140.053V27.0476C140.053 26.103 139.846 25.4107 139.434 24.9705C139.021 24.5303 138.338 24.3102 137.384 24.3102C136.623 24.3102 135.999 24.5165 135.513 24.9292C135.036 25.3327 134.702 25.8646 134.509 26.5249L134.523 36.7317H131.18V26.9375C131.134 25.186 130.24 24.3102 128.498 24.3102C127.159 24.3102 126.21 24.8558 125.65 25.9471V36.7317H122.308V21.8479H125.458ZM150.665 36.7317H147.322V21.8479H150.665V36.7317ZM147.116 17.9825C147.116 17.469 147.277 17.0425 147.598 16.7032C147.928 16.3639 148.395 16.1943 149.001 16.1943C149.606 16.1943 150.074 16.3639 150.404 16.7032C150.734 17.0425 150.899 17.469 150.899 17.9825C150.899 18.4869 150.734 18.9087 150.404 19.248C150.074 19.5782 149.606 19.7433 149.001 19.7433C148.395 19.7433 147.928 19.5782 147.598 19.248C147.277 18.9087 147.116 18.4869 147.116 17.9825ZM157.701 21.8479L157.797 23.5674C158.898 22.2376 160.342 21.5728 162.13 21.5728C165.23 21.5728 166.807 23.3473 166.862 26.8963V36.7317H163.52V27.0889C163.52 26.1443 163.313 25.4473 162.901 24.998C162.497 24.5394 161.832 24.3102 160.906 24.3102C159.558 24.3102 158.554 24.92 157.894 26.1397V36.7317H154.551V21.8479H157.701ZM169.936 29.1797C169.936 26.8871 170.468 25.0484 171.532 23.6637C172.596 22.2697 174.022 21.5728 175.81 21.5728C177.388 21.5728 178.662 22.123 179.634 23.2235V15.6028H182.977V36.7317H179.951L179.786 35.191C178.786 36.4015 177.452 37.0068 175.783 37.0068C174.04 37.0068 172.628 36.3053 171.546 34.9022C170.473 33.4991 169.936 31.5916 169.936 29.1797ZM173.279 29.4686C173.279 30.9818 173.568 32.1648 174.146 33.0176C174.733 33.8613 175.563 34.2832 176.636 34.2832C178.002 34.2832 179.002 33.6733 179.634 32.4536V26.0984C179.02 24.9063 178.029 24.3102 176.663 24.3102C175.581 24.3102 174.746 24.7412 174.16 25.6032C173.573 26.4561 173.279 27.7446 173.279 29.4686ZM187.922 36.7317V24.3239H185.652V21.8479H187.922V20.4861C187.922 18.8354 188.38 17.5607 189.298 16.6619C190.215 15.7632 191.498 15.3139 193.149 15.3139C193.736 15.3139 194.36 15.3964 195.02 15.5615L194.937 18.1751C194.571 18.1017 194.144 18.065 193.658 18.065C192.062 18.065 191.265 18.8858 191.265 20.5273V21.8479H194.291V24.3239H191.265V36.7317H187.922ZM206.031 35.2736C205.05 36.4291 203.656 37.0068 201.849 37.0068C200.235 37.0068 199.011 36.5345 198.177 35.59C197.351 34.6454 196.939 33.279 196.939 31.4907V21.8479H200.281V31.4495C200.281 33.3386 201.065 34.2832 202.634 34.2832C204.257 34.2832 205.353 33.7008 205.921 32.5362V21.8479H209.264V36.7317H206.114L206.031 35.2736ZM216.506 36.7317H213.163V15.6028H216.506V36.7317ZM223.996 36.7317H220.653V21.8479H223.996V36.7317ZM220.447 17.9825C220.447 17.469 220.607 17.0425 220.928 16.7032C221.258 16.3639 221.726 16.1943 222.331 16.1943C222.937 16.1943 223.404 16.3639 223.734 16.7032C224.065 17.0425 224.23 17.469 224.23 17.9825C224.23 18.4869 224.065 18.9087 223.734 19.248C223.404 19.5782 222.937 19.7433 222.331 19.7433C221.726 19.7433 221.258 19.5782 220.928 19.248C220.607 18.9087 220.447 18.4869 220.447 17.9825ZM233.177 32.4949L236.328 21.8479H239.78L234.622 36.7317H231.719L226.52 21.8479H229.986L233.177 32.4949ZM245.716 36.7317H242.373V21.8479H245.716V36.7317ZM242.167 17.9825C242.167 17.469 242.327 17.0425 242.648 16.7032C242.978 16.3639 243.446 16.1943 244.051 16.1943C244.656 16.1943 245.124 16.3639 245.454 16.7032C245.784 17.0425 245.949 17.469 245.949 17.9825C245.949 18.4869 245.784 18.9087 245.454 19.248C245.124 19.5782 244.656 19.7433 244.051 19.7433C243.446 19.7433 242.978 19.5782 242.648 19.248C242.327 18.9087 242.167 18.4869 242.167 17.9825ZM252.751 21.8479L252.848 23.5674C253.948 22.2376 255.393 21.5728 257.181 21.5728C260.28 21.5728 261.858 23.3473 261.913 26.8963V36.7317H258.57V27.0889C258.57 26.1443 258.364 25.4473 257.951 24.998C257.548 24.5394 256.883 24.3102 255.957 24.3102C254.608 24.3102 253.604 24.92 252.944 26.1397V36.7317H249.601V21.8479H252.751ZM265.028 29.1797C265.028 26.8688 265.569 25.0255 266.651 23.6499C267.743 22.2652 269.187 21.5728 270.985 21.5728C272.681 21.5728 274.015 22.1643 274.987 23.3473L275.139 21.8479H278.151V36.2777C278.151 38.2311 277.541 39.7717 276.322 40.8997C275.111 42.0277 273.474 42.5917 271.411 42.5917C270.32 42.5917 269.251 42.3624 268.206 41.9039C267.17 41.4545 266.381 40.863 265.84 40.1294L267.422 38.121C268.449 39.3407 269.714 39.9506 271.218 39.9506C272.328 39.9506 273.204 39.6479 273.846 39.0427C274.488 38.4466 274.809 37.5662 274.809 36.4015V35.3974C273.846 36.4703 272.562 37.0068 270.957 37.0068C269.215 37.0068 267.789 36.3144 266.679 34.9297C265.578 33.5449 265.028 31.6283 265.028 29.1797ZM268.357 29.4686C268.357 30.9634 268.66 32.1418 269.265 33.0039C269.879 33.8567 270.728 34.2832 271.81 34.2832C273.158 34.2832 274.158 33.7054 274.809 32.5499V26.0022C274.176 24.8742 273.185 24.3102 271.837 24.3102C270.737 24.3102 269.879 24.7458 269.265 25.617C268.66 26.4882 268.357 27.7721 268.357 29.4686Z" fill="#807E7E"/>
<path d="M126.856 49.7673H122.458L121.46 52.4816H120.602L124.268 42.7953H125.046L128.712 52.4816H127.86L126.856 49.7673ZM122.711 49.0688H126.596L124.654 43.7932L122.711 49.0688Z" fill="#807E7E"/>
<path d="M130.714 45.2834L130.741 46.5141C131.011 46.0706 131.348 45.7335 131.752 45.5029C132.156 45.2679 132.601 45.1503 133.089 45.1503C133.861 45.1503 134.435 45.3676 134.812 45.8023C135.189 46.2369 135.38 46.8889 135.384 47.7582V52.4816H134.593V47.7515C134.588 47.1084 134.451 46.6294 134.18 46.3146C133.914 45.9997 133.486 45.8422 132.896 45.8422C132.404 45.8422 131.967 45.9974 131.586 46.3079C131.209 46.6139 130.929 47.0286 130.747 47.552V52.4816H129.956V45.2834H130.714Z" fill="#807E7E"/>
<path d="M137.127 48.816C137.127 47.6895 137.376 46.798 137.873 46.1416C138.374 45.4807 139.052 45.1503 139.908 45.1503C140.888 45.1503 141.634 45.5406 142.144 46.3212L142.184 45.2834H142.929V52.3353C142.929 53.2622 142.669 53.9963 142.15 54.5373C141.631 55.0784 140.928 55.349 140.041 55.349C139.54 55.349 139.061 55.2359 138.604 55.0097C138.152 54.7879 137.795 54.4908 137.533 54.1182L137.979 53.6392C138.542 54.3311 139.212 54.6771 139.988 54.6771C140.653 54.6771 141.172 54.4797 141.545 54.085C141.917 53.6947 142.11 53.1514 142.124 52.455V51.5503C141.614 52.2599 140.871 52.6147 139.895 52.6147C139.061 52.6147 138.391 52.2821 137.886 51.6168C137.38 50.9515 137.127 50.0534 137.127 48.9224V48.816ZM137.932 48.9557C137.932 49.8738 138.116 50.5989 138.485 51.1311C138.853 51.6589 139.372 51.9228 140.041 51.9228C141.022 51.9228 141.716 51.4837 142.124 50.6056V47.2592C141.937 46.798 141.669 46.4476 141.319 46.2081C140.968 45.9642 140.547 45.8422 140.055 45.8422C139.385 45.8422 138.864 46.1061 138.491 46.6339C138.119 47.1572 137.932 47.9312 137.932 48.9557Z" fill="#807E7E"/>
<path d="M147.792 52.6147C147.18 52.6147 146.625 52.4639 146.129 52.1623C145.636 51.8607 145.253 51.4416 144.978 50.9049C144.703 50.3639 144.565 49.7585 144.565 49.0887V48.8027C144.565 48.1108 144.698 47.4877 144.964 46.9333C145.235 46.3789 145.61 45.9442 146.089 45.6293C146.568 45.31 147.087 45.1503 147.645 45.1503C148.519 45.1503 149.211 45.4497 149.721 46.0484C150.236 46.6428 150.493 47.4566 150.493 48.49V48.9357H145.357V49.0887C145.357 49.9048 145.59 50.5856 146.055 51.1311C146.526 51.6722 147.115 51.9428 147.825 51.9428C148.251 51.9428 148.626 51.8652 148.949 51.7099C149.278 51.5547 149.575 51.3063 149.841 50.9648L150.34 51.344C149.754 52.1911 148.905 52.6147 147.792 52.6147ZM147.645 45.8289C147.047 45.8289 146.541 46.0484 146.129 46.4875C145.721 46.9266 145.472 47.5165 145.383 48.2572H149.701V48.1707C149.679 47.4788 149.482 46.9155 149.109 46.4809C148.736 46.0462 148.249 45.8289 147.645 45.8289Z" fill="#807E7E"/>
<path d="M152.934 52.4816H152.136V42.263H152.934V52.4816Z" fill="#807E7E"/>
<path d="M155.995 52.4816H155.196V42.263H155.995V52.4816Z" fill="#807E7E"/>
<path d="M162.707 52.4816C162.627 52.2555 162.576 51.9206 162.554 51.4771C162.275 51.8408 161.918 52.1224 161.483 52.322C161.053 52.5171 160.596 52.6147 160.113 52.6147C159.421 52.6147 158.86 52.4218 158.43 52.0359C158.004 51.6501 157.791 51.1622 157.791 50.5723C157.791 49.8716 158.081 49.3172 158.662 48.9091C159.248 48.5011 160.062 48.2971 161.104 48.2971H162.548V47.4788C162.548 46.9643 162.388 46.5607 162.069 46.268C161.754 45.9708 161.292 45.8223 160.685 45.8223C160.13 45.8223 159.671 45.9642 159.308 46.248C158.944 46.5319 158.762 46.8734 158.762 47.2725L157.964 47.2659C157.964 46.6938 158.23 46.1992 158.762 45.7823C159.294 45.361 159.949 45.1503 160.725 45.1503C161.527 45.1503 162.16 45.3521 162.621 45.7557C163.086 46.1549 163.326 46.7137 163.339 47.4322V50.8384C163.339 51.5347 163.412 52.0559 163.559 52.4018V52.4816H162.707ZM160.206 51.9095C160.738 51.9095 161.213 51.7809 161.63 51.5237C162.051 51.2664 162.357 50.9227 162.548 50.4925V48.9091H161.124C160.33 48.918 159.709 49.0644 159.261 49.3482C158.813 49.6276 158.589 50.0135 158.589 50.5058C158.589 50.9094 158.738 51.2442 159.035 51.5103C159.337 51.7765 159.727 51.9095 160.206 51.9095Z" fill="#807E7E"/>
<path d="M169.792 51.7898H174.576V52.4816H168.967V42.7953H169.792V51.7898Z" fill="#807E7E"/>
<path d="M180.51 52.4816C180.43 52.2555 180.379 51.9206 180.357 51.4771C180.078 51.8408 179.721 52.1224 179.286 52.322C178.856 52.5171 178.399 52.6147 177.915 52.6147C177.224 52.6147 176.662 52.4218 176.232 52.0359C175.807 51.6501 175.594 51.1622 175.594 50.5723C175.594 49.8716 175.884 49.3172 176.465 48.9091C177.051 48.5011 177.864 48.2971 178.907 48.2971H180.35V47.4788C180.35 46.9643 180.191 46.5607 179.871 46.268C179.556 45.9708 179.095 45.8223 178.488 45.8223C177.933 45.8223 177.474 45.9642 177.11 46.248C176.747 46.5319 176.565 46.8734 176.565 47.2725L175.767 47.2659C175.767 46.6938 176.033 46.1992 176.565 45.7823C177.097 45.361 177.751 45.1503 178.527 45.1503C179.33 45.1503 179.962 45.3521 180.424 45.7557C180.889 46.1549 181.129 46.7137 181.142 47.4322V50.8384C181.142 51.5347 181.215 52.0559 181.362 52.4018V52.4816H180.51ZM178.009 51.9095C178.541 51.9095 179.015 51.7809 179.432 51.5237C179.854 51.2664 180.16 50.9227 180.35 50.4925V48.9091H178.927C178.133 48.918 177.512 49.0644 177.064 49.3482C176.616 49.6276 176.392 50.0135 176.392 50.5058C176.392 50.9094 176.541 51.2442 176.838 51.5103C177.139 51.7765 177.53 51.9095 178.009 51.9095Z" fill="#807E7E"/>
<path d="M184.994 50.8251L185.114 51.4438L185.273 50.7919L187.003 45.2834H187.682L189.391 50.7453L189.578 51.5037L189.731 50.8052L191.208 45.2834H192.033L189.937 52.4816H189.258L187.409 46.7736L187.322 46.3811L187.236 46.7802L185.42 52.4816H184.741L182.652 45.2834H183.47L184.994 50.8251Z" fill="#807E7E"/>
<path d="M194.434 52.4816H193.636V45.2834H194.434V52.4816ZM193.496 43.2011C193.496 43.0503 193.545 42.9239 193.643 42.8219C193.74 42.7154 193.873 42.6622 194.042 42.6622C194.21 42.6622 194.343 42.7154 194.441 42.8219C194.543 42.9239 194.594 43.0503 194.594 43.2011C194.594 43.3519 194.543 43.4783 194.441 43.5803C194.343 43.6823 194.21 43.7333 194.042 43.7333C193.873 43.7333 193.74 43.6823 193.643 43.5803C193.545 43.4783 193.496 43.3519 193.496 43.2011Z" fill="#807E7E"/>
<path d="M197.361 45.2834L197.388 46.5141C197.659 46.0706 197.996 45.7335 198.399 45.5029C198.803 45.2679 199.249 45.1503 199.736 45.1503C200.508 45.1503 201.082 45.3676 201.459 45.8023C201.836 46.2369 202.027 46.8889 202.032 47.7582V52.4816H201.24V47.7515C201.236 47.1084 201.098 46.6294 200.827 46.3146C200.561 45.9997 200.133 45.8422 199.543 45.8422C199.051 45.8422 198.614 45.9974 198.233 46.3079C197.856 46.6139 197.577 47.0286 197.395 47.552V52.4816H196.603V45.2834H197.361Z" fill="#807E7E"/>
<path d="M203.655 48.7761C203.655 48.0842 203.788 47.461 204.054 46.9066C204.325 46.3523 204.704 45.922 205.192 45.616C205.684 45.3056 206.241 45.1503 206.862 45.1503C207.82 45.1503 208.596 45.4874 209.19 46.1615C209.784 46.8312 210.081 47.7205 210.081 48.8293V48.9956C210.081 49.6919 209.946 50.3195 209.676 50.8783C209.41 51.4327 209.033 51.8607 208.545 52.1623C208.057 52.4639 207.5 52.6147 206.875 52.6147C205.921 52.6147 205.145 52.2798 204.546 51.6101C203.952 50.936 203.655 50.0445 203.655 48.9357V48.7761ZM204.453 48.9956C204.453 49.856 204.675 50.5634 205.118 51.1178C205.566 51.6678 206.152 51.9428 206.875 51.9428C207.593 51.9428 208.174 51.6678 208.618 51.1178C209.066 50.5634 209.29 49.8339 209.29 48.9291V48.7761C209.29 48.2261 209.188 47.7227 208.984 47.2659C208.78 46.8091 208.494 46.4565 208.126 46.2081C207.757 45.9553 207.336 45.8289 206.862 45.8289C206.152 45.8289 205.573 46.1083 205.125 46.6671C204.677 47.2215 204.453 47.9489 204.453 48.8492V48.9956Z" fill="#807E7E"/>
<path fill-rule="evenodd" clip-rule="evenodd" d="M26.5081 45.596C24.6174 43.7083 22.8216 40.7531 21.1568 36.7892C20.973 36.8243 20.7859 36.8615 20.5978 36.8998C19.9387 37.0301 19.3093 37.1714 18.6985 37.3246C15.4815 38.0809 11.6608 38.662 7.27501 39.0642C5.00027 39.2728 2.57348 39.4333 0 39.5451C1.39409 40.7443 3.50419 42.3893 5.96084 44.0182C9.80029 46.5639 14.4862 49.07 18.6083 49.7724C19.3082 49.9432 19.9299 50.0812 20.5692 50.206C21.9776 50.4972 23.1077 50.6735 24.0397 50.7447L24.9662 50.818C25.0302 50.8234 25.0947 50.8284 25.1597 50.8329C25.6644 50.8681 26.1984 50.8787 26.7609 50.8739C27.7073 50.3013 28.6756 49.8753 29.6428 49.6071C30.1578 49.4637 30.6915 49.3356 31.2416 49.2228C30.5141 48.7683 29.8096 48.2902 29.1343 47.7919C29.1334 47.7912 29.1325 47.7906 29.1316 47.7899C28.3616 47.2216 27.6296 46.6271 26.9447 46.0115C26.7986 45.8793 26.6531 45.7408 26.5081 45.596ZM20.0252 45.1499C19.4575 44.2677 18.9167 43.3262 18.4007 42.3342C17.0224 42.6241 15.5631 42.8846 14.0263 43.1162C15.988 44.0705 17.8413 44.747 19.4267 45.0171L19.5963 45.046L19.7634 45.0868C19.8523 45.1085 19.9395 45.1295 20.0252 45.1499Z" fill="#348E91"/>
<path fill-rule="evenodd" clip-rule="evenodd" d="M91.0182 42.338C90.5032 43.328 89.9636 44.2677 89.3972 45.1483C89.4418 45.1373 89.4861 45.1262 89.5302 45.115L89.7158 45.0681L89.9046 45.0359C91.5207 44.7602 93.398 44.0765 95.3765 43.1164C93.8442 42.8856 92.3902 42.6263 91.0182 42.338ZM102.141 39.0653C104.416 39.2739 106.845 39.4347 109.42 39.5473C108.026 40.7454 105.915 42.3897 103.453 44.0191C99.6025 46.5677 94.8931 49.0797 90.7241 49.791C90.1134 49.9454 89.4818 50.0856 88.8194 50.2159C87.4197 50.5027 86.2973 50.6779 85.3774 50.7458L84.4487 50.8213C84.3864 50.8265 84.3237 50.8312 84.2604 50.8356C83.7588 50.8703 83.2251 50.8809 82.6584 50.8761C81.7143 50.3045 80.746 49.8786 79.7798 49.6115C79.2638 49.4669 78.7301 49.3378 78.1799 49.225C78.9077 48.7701 79.6122 48.2919 80.2876 47.7934C80.2903 47.7914 80.2931 47.7894 80.2958 47.7874C81.0643 47.2198 81.795 46.6259 82.479 46.0104C82.6238 45.8794 82.768 45.7421 82.9117 45.5987C84.8009 43.7129 86.5979 40.7565 88.2637 36.7892C88.454 36.8265 88.6477 36.8648 88.848 36.9064C89.4884 37.0301 90.109 37.1703 90.7362 37.3323C93.9393 38.0842 97.7555 38.6634 102.141 39.0653Z" fill="#348E91"/>
<path fill-rule="evenodd" clip-rule="evenodd" d="M30.1538 60.3689C27.9548 60.6121 25.8498 60.9073 24.2147 61.2435C24.917 59.6437 26.0384 57.5239 27.5188 55.8263C28.1377 55.1167 28.8193 54.4809 29.5592 53.9877C30.3569 53.4206 31.2097 52.9771 32.0911 52.6728C32.4611 52.5451 32.8433 52.4219 33.2408 52.301C34.3541 51.9621 35.5869 51.6409 37.0043 51.2899C37.4565 51.3863 37.9132 51.464 38.3709 51.5242C38.1145 52.2983 37.9891 53.0702 37.9891 53.853C37.989 53.9849 37.9956 54.1176 38.0086 54.2512C38.029 54.4616 38.0652 54.6743 38.1162 54.8896C38.454 56.3177 39.438 57.8627 40.74 59.622C39.3505 59.6454 37.3213 59.7471 35.0865 59.9147C33.4943 60.0341 31.7978 60.187 30.1538 60.3689Z" fill="#A6D0D1"/>
<path fill-rule="evenodd" clip-rule="evenodd" d="M79.8954 54.0107C79.0602 53.4184 78.2075 52.976 77.3294 52.6717C76.9605 52.5449 76.5796 52.4224 76.1839 52.302C75.0687 51.9627 73.8351 51.6406 72.4162 51.2899C71.964 51.3863 71.5095 51.4629 71.054 51.5231C71.3092 52.2983 71.4358 53.0713 71.4358 53.853C71.4358 53.9818 71.4294 54.1114 71.417 54.242C71.3966 54.4553 71.3599 54.6711 71.3082 54.8897C70.97 56.3173 69.9865 57.8629 68.6838 59.622C70.0728 59.6454 72.1023 59.7472 74.3376 59.9148C75.9308 60.0343 77.6286 60.1873 79.2735 60.3694C81.4711 60.6125 83.5744 60.9075 85.208 61.2435C84.5066 59.6411 83.3858 57.5191 81.9106 55.8272C81.2984 55.125 80.6251 54.4969 79.8954 54.0107Z" fill="#A6D0D1"/>
<path fill-rule="evenodd" clip-rule="evenodd" d="M50.4929 58.0524C51.8788 59.3528 53.3859 60.5671 54.7072 61.569C56.0259 60.5665 57.5303 59.3522 58.9159 58.0524H50.4929ZM63.8069 60.0085C60.6367 63.3621 56.3871 66.3643 54.7112 67.5435C53.0387 66.3698 48.7858 63.3764 45.6178 60.0238C44.6514 58.9971 43.8225 57.9364 43.1938 56.9464C42.3737 55.6549 41.8942 54.4839 41.8942 53.6658C41.8942 53.3495 41.9208 53.0457 41.9729 52.7504C42.0345 52.4016 42.1317 52.0648 42.2628 51.7333C45.0797 52.5282 49.1423 53.2279 49.5648 53.2279H59.8555C60.2791 53.2279 64.3417 52.5293 67.1586 51.7366C67.2964 52.0831 67.3964 52.4271 67.457 52.7864C67.5028 53.0584 67.5261 53.3391 67.5261 53.6363C67.5261 54.4598 67.0406 55.6463 66.2114 56.9521C65.5854 57.9379 64.7635 58.9916 63.8069 60.0085ZM62.7243 53.1878C62.7246 53.1877 62.7229 53.1945 62.7186 53.2085C62.7219 53.1949 62.724 53.1879 62.7243 53.1878ZM46.7007 53.2326C46.6963 53.2186 46.6946 53.2118 46.6949 53.2119C46.6952 53.212 46.6974 53.219 46.7007 53.2326Z" fill="#348E91"/>
<path fill-rule="evenodd" clip-rule="evenodd" d="M85.9481 33.1883C84.2734 38.1525 82.3752 41.678 80.4584 43.3861C78.7847 44.8808 76.7816 46.1201 74.4926 47.0807C74.1225 47.236 73.7448 47.3841 73.3599 47.5247C72.3311 47.8992 71.2747 48.2069 70.2173 48.4455C68.8099 48.7565 67.4565 48.9349 66.191 48.9733C67.455 47.9454 68.5846 46.8113 69.5668 45.5922C69.5704 45.5877 69.574 45.5832 69.5775 45.5788C70.2047 44.7991 70.7716 43.9848 71.2749 43.1412C73.0956 40.09 74.0844 36.657 74.0818 33.104C74.0818 30.6337 73.0678 27.6105 71.7237 24.6205C71.0518 23.1259 70.2975 21.6395 69.5461 20.2347C70.9661 19.8199 72.5516 19.2919 74.21 18.692C77.7619 17.4071 81.6484 15.7923 84.9606 14.2538C86.9886 13.3119 88.8012 12.3985 90.1901 11.6069C90.009 13.1154 89.7434 15.1699 89.3931 17.484C88.6385 22.4683 87.4909 28.6571 85.9481 33.1883ZM84.0868 19.9403C83.3916 23.9996 82.4768 28.348 81.3558 31.6402L81.3515 31.6529C80.2644 34.8753 79.2021 37.0522 78.3424 38.3888C78.73 36.6736 78.9316 34.9046 78.9305 33.1022M84.0868 19.9403C81.5562 21.0429 78.8757 22.124 76.3304 23.0569C76.6342 23.7477 76.9236 24.4457 77.1909 25.1443C78.1203 27.5736 78.9298 30.3812 78.9305 33.1005" fill="#A6D0D1"/>
<path fill-rule="evenodd" clip-rule="evenodd" d="M28.0663 31.6428L28.0686 31.6496C29.1548 34.8721 30.2164 37.0487 31.0753 38.3847C30.688 36.6702 30.4863 34.9021 30.4871 33.1006M36.0609 47.5235C35.675 47.3825 35.2965 47.234 34.9254 47.0781C32.6401 46.1184 30.6378 44.8795 28.9613 43.3837C27.0434 41.6768 25.1453 38.1491 23.4716 33.1838C21.9297 28.6544 20.7819 22.4666 20.026 17.4826C19.675 15.1681 19.4085 13.1133 19.2264 11.6046C20.6156 12.3961 22.4289 13.3097 24.4576 14.2519C27.7697 15.7903 31.656 17.4051 35.2085 18.69C36.8667 19.2898 38.4522 19.8177 39.8726 20.2323C39.1211 21.6372 38.3667 23.1236 37.6946 24.6182C36.3502 27.6081 35.3358 30.631 35.3358 33.1006C35.3338 36.6545 36.3226 40.088 38.1435 43.1394C38.6471 43.9833 39.2143 44.798 39.8419 45.578C39.8441 45.5808 39.8464 45.5837 39.8487 45.5865C40.8316 46.8069 41.9622 47.9421 43.2276 48.971C41.9611 48.9315 40.6098 48.7542 39.2025 48.4432C38.1417 48.2056 37.0853 47.8969 36.0609 47.5235ZM30.4871 33.098C30.4876 30.3784 31.2977 27.5704 32.2274 25.1412C32.4946 24.443 32.784 23.7454 33.0877 23.0549C30.5427 22.1222 27.8629 21.0413 25.3331 19.9391C26.0289 23.998 26.9437 28.3451 28.064 31.636L28.0663 31.6428" fill="#A6D0D1"/>
<path fill-rule="evenodd" clip-rule="evenodd" d="M61.5783 22.6753C61.5303 22.5919 58.6854 17.5454 56.3969 13.3553C55.6525 11.9923 54.967 10.72 54.4558 9.73857C53.9444 10.72 53.2588 11.9923 52.5144 13.3552C50.2258 17.5453 47.3812 22.5919 47.3333 22.6753C44.6588 27.3202 43.3038 30.8519 43.3038 33.1732C43.303 38.4922 46.2325 42.8483 50.7666 44.2682C53.2581 45.0816 55.6674 45.0777 58.1333 44.2721C62.6783 42.8483 65.6085 38.493 65.6077 33.1732C65.607 30.8519 64.2519 27.3194 61.5783 22.6753ZM56.5612 3.60591C59.9031 9.71493 64.6556 18.0686 64.7295 18.1959C68.5247 24.728 70.4481 29.6966 70.4492 32.9616C70.4503 40.4441 66.2909 46.57 59.8395 48.5725C56.3392 49.7057 52.9192 49.7112 49.3827 48.567C42.9466 46.57 38.7883 40.443 38.7894 32.9616C38.7894 29.6966 40.7129 24.7291 44.5091 18.1959C44.583 18.0686 49.3349 9.71482 52.6771 3.6058C53.4151 2.25683 54.0843 1.01732 54.6193 0C55.1541 1.01735 55.8233 2.2569 56.5612 3.60591Z" fill="#DD99A3"/>
</svg>
