<svg width="104" height="129" viewBox="0 0 104 129" fill="none" xmlns="http://www.w3.org/2000/svg">
<g clip-path="url(#clip0)">
<path d="M89.2136 29.4344C82.2285 12.8356 65.9962 1.8771 45.7813 0.125295C27.8359 -1.43309 14.912 11.8114 11.8799 25.0558C8.49975 39.7979 15.9251 56.0781 16.2475 56.7541C16.8406 58.0307 18.0674 58.7896 19.3882 58.8375C19.9464 58.8743 20.5174 58.7657 21.0534 58.517C22.8623 57.6862 23.6471 55.5291 22.8145 53.7202C22.7445 53.5784 16.1149 38.9653 18.9351 26.6732C20.9466 17.8681 30.4185 6.05122 45.1624 7.32409C62.6418 8.84748 76.6249 18.1536 82.5379 32.2417C86.9294 42.677 85.7063 53.6005 79.2425 61.4459C61.7981 82.637 55.6935 95.8115 48.6126 111.056C43.3775 122.361 35.2245 122.728 29.3225 121.04C27.7162 120.526 17.0064 112.031 21.5176 94.4926C22.0168 92.5492 20.8527 90.5745 18.9111 90.0753C18.6606 90.0182 18.4009 89.9813 18.1503 89.9813C16.4851 89.9095 14.9378 91.0037 14.5086 92.6836C9.17578 113.4 21.5176 126.335 27.3238 127.989C29.0517 128.488 31.5237 129 34.3808 129C40.9717 129 49.5392 126.252 55.1814 114.101C62.0468 99.3003 67.9727 86.5311 84.835 66.0381C93.0248 56.0891 94.6643 42.4063 89.2136 29.4344Z" fill="#9E6D74"/>
<path d="M65.1543 63.8608C65.6885 64.1445 66.2725 64.2881 66.8435 64.2881C68.1422 64.2881 69.3911 63.5863 70.045 62.3595C70.3545 61.7774 77.5275 48.0098 73.0071 34.7893C70.5184 27.4836 65.0346 21.8782 56.7287 18.1186C46.1258 13.3218 34.4766 16.2139 28.3812 25.1516C19.4582 38.2303 27.5504 53.8528 37.1881 63.2529C38.6157 64.6492 40.9109 64.6234 42.3035 63.1958C43.6961 61.7682 43.6722 59.473 42.2464 58.0804C36.8068 52.7734 33.8208 47.6911 32.559 43.1449C38.0907 44.6093 45.9692 47.5972 48.5739 52.3092C49.7049 54.3668 49.7049 56.568 48.5628 59.2575C44.9211 67.8378 40.3159 73.4285 36.8878 76.7387C35.6279 75.2853 33.7821 74.3827 31.7116 74.3827C27.928 74.3827 24.8444 77.4516 24.8444 81.2481C24.8444 85.0446 27.928 88.1263 31.7116 88.1263C33.1042 88.1263 34.401 87.7082 35.4842 86.9861C35.5081 86.9714 35.5431 86.9493 35.6021 86.9143C36.9228 86.1627 47.8463 79.452 55.2238 62.0795C57.2242 57.3914 57.1045 52.7955 54.8903 48.8C54.3193 47.7648 48.9773 38.9468 31.9603 35.5427C32.2937 33.1167 33.1503 30.9854 34.3531 29.2373C38.4941 23.1566 46.2879 21.3477 53.7354 24.715C60.1384 27.6071 64.3144 31.772 66.1454 37.09C66.9448 39.411 67.2543 41.8131 67.2543 44.123C67.2543 51.9758 63.6954 58.889 63.6494 58.9848C62.7154 60.7458 63.3933 62.9213 65.1543 63.8608Z" fill="#9E6D74"/>
</g>
<defs>
<clipPath id="clip0">
<rect width="103.2" height="129" fill="white" transform="translate(0.399994)"/>
</clipPath>
</defs>
</svg>
