<svg width="113" height="129" viewBox="0 0 113 129" fill="none" xmlns="http://www.w3.org/2000/svg">
<path d="M37.6546 9.35949C28.7665 9.35949 22.0327 15.659 21.693 24.3407C21.3447 33.1428 28.1559 41.4418 33.3116 46.92C39.7702 53.7871 49.5613 61.2304 56.8713 65.7798C63.9534 60.981 73.465 53.1378 79.6957 45.9697C84.6278 40.2851 91.1165 31.7023 90.4285 22.926C89.7835 14.7603 82.9981 8.60268 74.6475 8.60268C74.2304 8.60268 73.8004 8.61129 73.3919 8.64139C68.2663 8.99829 64.177 12.7823 62.1861 15.0097L56.0285 21.8854L49.6043 15.2591C47.5274 13.122 43.2919 9.50568 38.2351 9.35949H37.6546ZM54.9019 74.6249C47.1533 70.1529 35.1563 61.4325 27.0465 52.8153C20.833 46.2105 12.6243 36.0367 13.1016 24.0053C13.6219 10.7527 24.1956 0.759486 37.6976 0.759486L38.4802 0.763786C46.3535 0.991686 52.4122 5.79909 55.7791 9.27349C59.0084 5.66579 64.865 0.613286 72.6824 0.0714855C73.3274 0.0198855 73.9939 0.00268555 74.6475 0.00268555C87.5303 0.00268555 98.0008 9.56589 99.0027 22.2552C99.9358 34.2436 92.1356 44.7528 86.1844 51.6156C78.3885 60.5854 66.7484 69.7702 59.2277 74.5174C58.5311 74.9474 57.7485 75.1667 56.9659 75.1667C56.2521 75.1667 55.5426 74.9861 54.9019 74.6249ZM106.358 75.2346C111.432 80.2656 111.432 88.4356 106.358 93.4666L72.1732 127.695C71.3562 128.469 70.3242 128.942 69.1202 128.942H50.7162H1.99295V120.342H47.8739H56.5212H67.3143L73.3772 114.279L74.0179 113.677L100.295 87.4036C101.968 85.7266 101.968 82.9746 100.295 81.2976C99.1772 80.2226 97.9302 80.0506 97.2422 80.0506C96.5929 80.0506 95.3072 80.2226 94.2322 81.2976L79.6982 95.8316C79.3112 92.5636 78.1072 89.5536 76.3872 86.9736L88.1262 75.2346C90.6632 72.6976 93.9312 71.4506 97.2422 71.4506C100.549 71.4506 103.864 72.6976 106.358 75.2346ZM21.5296 85.9446C10.1561 85.9446 3.14277 93.2202 2.00757 94.4371V83.2356C4.77677 81.4167 11.7772 77.3575 21.4995 77.3575H21.5425C33.9566 77.3704 42.3244 84.001 44.6034 85.9403L58.4666 85.9446C65.5444 85.9446 71.3666 91.7668 71.3666 98.8446C71.3666 105.918 65.5444 111.745 58.4666 111.745H21.4565V103.136H58.4709C60.8445 103.136 62.7881 101.18 62.7795 98.8274C62.7709 96.4882 60.8488 94.5532 58.4967 94.5446H41.1462C40.0239 93.3234 33.002 85.9618 21.5683 85.9446H21.5296Z" fill="#9E6D74"/>
</svg>
