<svg width="129" height="129" viewBox="0 0 129 129" fill="none" xmlns="http://www.w3.org/2000/svg">
<path d="M45.986 37.2916C34.9315 37.2916 25.9166 46.3719 25.9166 57.4996C25.9166 68.6274 34.9315 77.7189 45.986 77.7189C57.0404 77.7189 66.0776 68.6274 66.0776 57.4996C66.0776 46.3718 57.0404 37.2916 45.986 37.2916ZM45.986 44.3103C53.9535 44.3103 59.1051 49.4792 59.1051 57.4996C59.1051 65.5201 53.9535 70.7058 45.986 70.7058C38.0184 70.7058 32.8835 65.5201 32.8835 57.4996C32.8835 49.4792 38.0184 44.3103 45.986 44.3103ZM45.986 84.9788C38.7908 84.9788 32.2515 86.8764 27.3279 90.1558C22.4042 93.4351 19 98.3307 19 103.952V124.918C18.994 126.505 20.2675 127.797 21.8447 127.804H70.1216C70.8828 127.807 71.6138 127.504 72.1521 126.962C72.6904 126.42 72.9915 125.684 72.9886 124.918V103.952C72.9886 98.3307 69.5677 93.4351 64.6441 90.1558C59.7204 86.8764 53.1811 84.9788 45.986 84.9788ZM45.986 91.9919C52.1673 91.9919 56.4394 92.4176 60.243 94.9509C64.0466 97.4842 66.0217 100.662 66.0217 103.952V120.791H25.9446V103.952C25.9446 100.662 27.9197 97.4842 31.7233 94.9509C35.5269 92.4176 39.8046 91.9919 45.986 91.9919Z" fill="#9E6D74"/>
<path fill-rule="evenodd" clip-rule="evenodd" d="M100.196 1C100.103 1.00103 100.01 1.00665 99.9175 1.01684C98.8641 1.12405 97.9561 1.80909 97.5581 2.79677L92.181 16.1041L77.9518 16.9969C76.785 17.0672 75.7785 17.8461 75.411 18.9631C75.0436 20.0801 75.3894 21.3097 76.2839 22.0671L87.1832 31.3205L83.6412 45.2398C83.3564 46.3766 83.7858 47.5737 84.7264 48.2651C85.6671 48.9564 86.9305 49.0035 87.9195 48.3842L100.024 40.8265L112.083 48.5133C113.069 49.1421 114.336 49.1038 115.282 48.4167C116.229 47.7295 116.665 46.5316 116.384 45.3914L112.964 31.4496L123.953 22.3029C124.858 21.5569 125.22 20.3305 124.866 19.208C124.512 18.0854 123.513 17.2938 122.346 17.2102L108.117 16.1715L102.868 2.81923C102.436 1.71616 101.375 0.99368 100.196 1ZM102.868 21.2081L100.169 14.1109L96.7995 21.2081C96.3854 22.232 95.4247 22.9262 94.3285 22.9937L87.9195 23.033L92.2424 28.0975C93.0772 28.8072 93.4367 29.9342 93.1683 31.0004L91.6858 38.0465L98.5454 33.7067C99.4775 33.128 100.656 33.1367 101.58 33.7292L107.95 38.0465L107.001 31.0903C106.736 30.0179 107.105 28.803 107.95 28.0975L112.083 23.033L105.311 23.0105C104.222 22.9297 103.273 22.2299 102.868 21.2081Z" fill="#9E6D74"/>
<path d="M45.986 37.2916C34.9315 37.2916 25.9166 46.3719 25.9166 57.4996C25.9166 68.6274 34.9315 77.7189 45.986 77.7189C57.0404 77.7189 66.0776 68.6274 66.0776 57.4996C66.0776 46.3718 57.0404 37.2916 45.986 37.2916ZM45.986 44.3103C53.9535 44.3103 59.1051 49.4792 59.1051 57.4996C59.1051 65.5201 53.9535 70.7058 45.986 70.7058C38.0184 70.7058 32.8835 65.5201 32.8835 57.4996C32.8835 49.4792 38.0184 44.3103 45.986 44.3103ZM45.986 84.9788C38.7908 84.9788 32.2515 86.8764 27.3279 90.1558C22.4042 93.4351 19 98.3307 19 103.952V124.918C18.994 126.505 20.2675 127.797 21.8447 127.804H70.1216C70.8828 127.807 71.6138 127.504 72.1521 126.962C72.6904 126.42 72.9915 125.684 72.9886 124.918V103.952C72.9886 98.3307 69.5677 93.4351 64.6441 90.1558C59.7204 86.8764 53.1811 84.9788 45.986 84.9788ZM45.986 91.9919C52.1673 91.9919 56.4394 92.4176 60.243 94.9509C64.0466 97.4842 66.0217 100.662 66.0217 103.952V120.791H25.9446V103.952C25.9446 100.662 27.9197 97.4842 31.7233 94.9509C35.5269 92.4176 39.8046 91.9919 45.986 91.9919Z" stroke="#9E6D74" stroke-width="0.990654"/>
<path fill-rule="evenodd" clip-rule="evenodd" d="M100.196 1C100.103 1.00103 100.01 1.00665 99.9175 1.01684C98.8641 1.12405 97.9561 1.80909 97.5581 2.79677L92.181 16.1041L77.9518 16.9969C76.785 17.0672 75.7785 17.8461 75.411 18.9631C75.0436 20.0801 75.3894 21.3097 76.2839 22.0671L87.1832 31.3205L83.6412 45.2398C83.3564 46.3766 83.7858 47.5737 84.7264 48.2651C85.6671 48.9564 86.9305 49.0035 87.9195 48.3842L100.024 40.8265L112.083 48.5133C113.069 49.1421 114.336 49.1038 115.282 48.4167C116.229 47.7295 116.665 46.5316 116.384 45.3914L112.964 31.4496L123.953 22.3029C124.858 21.5569 125.22 20.3305 124.866 19.208C124.512 18.0854 123.513 17.2938 122.346 17.2102L108.117 16.1715L102.868 2.81923C102.436 1.71616 101.375 0.99368 100.196 1ZM102.868 21.2081L100.169 14.1109L96.7995 21.2081C96.3854 22.232 95.4247 22.9262 94.3285 22.9937L87.9195 23.033L92.2424 28.0975C93.0772 28.8072 93.4367 29.9342 93.1683 31.0004L91.6858 38.0465L98.5454 33.7067C99.4775 33.128 100.656 33.1367 101.58 33.7292L107.95 38.0465L107.001 31.0903C106.736 30.0179 107.105 28.803 107.95 28.0975L112.083 23.033L105.311 23.0105C104.222 22.9297 103.273 22.2299 102.868 21.2081Z" stroke="#9E6D74" stroke-width="0.990654"/>
</svg>
