<svg width="87" height="120" viewBox="0 0 87 120" fill="none" xmlns="http://www.w3.org/2000/svg">
<g clip-path="url(#clip0)">
<path d="M81.0815 44.8291C83.6413 44.8291 85.7076 46.8953 85.7076 49.4551V75.505C85.7076 99.1706 66.5258 118.361 42.8517 118.361C19.186 118.361 0.00422287 99.1706 0.00422287 75.505V49.4551C0.00422287 46.8953 2.07047 44.8291 4.63028 44.8291H9.49893V33.0841C9.5324 14.7137 24.7574 -0.226878 42.8517 -0.00101241C60.6031 0.233218 75.276 14.9814 75.3512 33.0004C75.3429 35.7694 73.0675 38.0364 70.3069 38.0448C67.5463 38.0448 65.2626 35.761 65.2626 33.0004C65.271 20.3687 54.8728 10.0124 42.3163 10.0458C29.8436 10.0793 19.5374 20.3436 19.4788 32.8833C19.4788 32.8833 19.529 39.7848 19.5541 44.8291H81.0815ZM75.6524 75.0867V54.8592H10.0343V75.7308C10.2351 93.6997 25.0502 108.314 42.8434 108.314C60.8708 108.314 75.803 93.3065 75.6524 75.0867ZM38.1922 88.5909C38.1922 91.1675 40.2836 93.2504 42.8517 93.2504C45.4283 93.2504 47.5196 91.1675 47.5196 88.5909V81.2545C48.7326 80.0499 49.4855 78.3852 49.4855 76.5448C49.4855 72.8807 46.5158 69.911 42.8517 69.911C39.1877 69.911 36.218 72.8807 36.218 76.5448C36.218 78.3852 36.9792 80.0499 38.1922 81.2545V88.5909Z" fill="#9E6D74"/>
</g>
<defs>
<clipPath id="clip0">
<rect width="87" height="119.625" fill="white"/>
</clipPath>
</defs>
</svg>
