<svg width="131" height="129" viewBox="0 0 131 129" fill="none" xmlns="http://www.w3.org/2000/svg">
<path d="M82.8775 42.0632C78.1382 42.0632 74.2876 45.9139 74.2876 50.6531C74.2876 55.3924 78.1382 59.243 82.8775 59.243C87.6167 59.243 91.4673 55.3924 91.4673 50.6531C91.3192 45.9139 87.6167 42.0632 82.8775 42.0632ZM84.3585 50.6531C82.7294 50.6531 81.3965 49.3202 81.3965 47.6911C81.3965 46.062 82.7294 44.7291 84.3585 44.7291C85.9876 44.7291 87.3205 46.062 87.3205 47.6911C87.3205 49.3202 85.9876 50.6531 84.3585 50.6531ZM46.5927 42.0632C41.8534 42.0632 38.0028 45.9139 38.0028 50.6531C38.0028 55.3924 41.8534 59.243 46.5927 59.243C51.3319 59.243 55.1825 55.3924 55.1825 50.6531C55.0344 45.9139 51.3319 42.0632 46.5927 42.0632ZM48.0737 50.6531C46.4446 50.6531 45.1116 49.3202 45.1116 47.6911C45.1116 46.062 46.4446 44.7291 48.0737 44.7291C49.7028 44.7291 51.0357 46.062 51.0357 47.6911C51.0357 49.3202 49.7028 50.6531 48.0737 50.6531ZM83.618 87.7531C87.6167 85.6797 94.7256 81.681 96.799 76.7936C97.5395 74.8683 96.799 72.7949 94.8737 71.9063C92.9484 71.1658 90.8749 71.9063 89.9863 73.8316C89.3939 75.3126 85.9876 78.2746 80.3597 81.0886C72.6585 84.9392 58.1446 84.9392 50.4433 81.0886C44.8154 78.2746 41.4091 75.3126 40.8167 73.8316C40.0762 71.9063 37.8547 71.0177 35.9294 71.9063C34.0041 72.6468 33.1154 74.8683 34.0041 76.7936C36.0775 81.681 43.1863 85.8278 47.1851 87.7531C52.0724 90.2709 58.737 91.4557 65.4015 91.4557C72.0661 91.4557 78.7306 90.2709 83.618 87.7531Z" fill="#9E6D74"/>
<path fill-rule="evenodd" clip-rule="evenodd" d="M14.4051 64.5C14.4051 92.7189 37.2811 115.595 65.5 115.595C93.719 115.595 116.595 92.7189 116.595 64.5C116.595 36.281 93.719 13.405 65.5 13.405C37.2811 13.405 14.4051 36.281 14.4051 64.5ZM65.5 5.99995C33.1914 5.99995 7.00001 32.1913 7.00001 64.5C7.00001 96.8086 33.1914 123 65.5 123C97.8087 123 124 96.8086 124 64.5C124 32.1913 97.8087 5.99995 65.5 5.99995Z" fill="#9E6D74"/>
<path fill-rule="evenodd" clip-rule="evenodd" d="M65.5 6.79995C33.6332 6.79995 7.80001 32.6331 7.80001 64.5C7.80001 96.3668 33.6332 122.2 65.5 122.2C97.3668 122.2 123.2 96.3668 123.2 64.5C123.2 32.6331 97.3668 6.79995 65.5 6.79995ZM6.20001 64.5C6.20001 31.7495 32.7495 5.19995 65.5 5.19995C98.2505 5.19995 124.8 31.7495 124.8 64.5C124.8 97.2504 98.2505 123.8 65.5 123.8C32.7495 123.8 6.20001 97.2504 6.20001 64.5ZM65.5 14.205C37.7229 14.205 15.2051 36.7228 15.2051 64.5C15.2051 92.2771 37.7229 114.795 65.5 114.795C93.2771 114.795 115.795 92.2771 115.795 64.5C115.795 36.7228 93.2771 14.205 65.5 14.205ZM13.6051 64.5C13.6051 35.8392 36.8392 12.605 65.5 12.605C94.1608 12.605 117.395 35.8392 117.395 64.5C117.395 93.1607 94.1608 116.395 65.5 116.395C36.8392 116.395 13.6051 93.1607 13.6051 64.5ZM37.2028 50.6531C37.2028 45.4721 41.4116 41.2632 46.5927 41.2632C51.7957 41.2632 55.8216 45.4894 55.9821 50.6281L55.9825 50.6406V50.6531C55.9825 55.8342 51.7737 60.043 46.5927 60.043C41.4116 60.043 37.2028 55.8342 37.2028 50.6531ZM46.5927 42.8632C42.2952 42.8632 38.8028 46.3557 38.8028 50.6531C38.8028 54.9505 42.2952 58.443 46.5927 58.443C50.8859 58.443 54.3757 54.9573 54.3825 50.6656C54.2408 46.3317 50.864 42.8632 46.5927 42.8632ZM73.4876 50.6531C73.4876 45.4721 77.6964 41.2632 82.8775 41.2632C88.0806 41.2632 92.1064 45.4894 92.267 50.6281L92.2673 50.6406V50.6531C92.2673 55.8342 88.0585 60.043 82.8775 60.043C77.6964 60.043 73.4876 55.8342 73.4876 50.6531ZM82.8775 42.8632C78.5801 42.8632 75.0876 46.3557 75.0876 50.6531C75.0876 54.9505 78.5801 58.443 82.8775 58.443C87.1708 58.443 90.6607 54.9572 90.6673 50.6654C90.5255 46.3315 87.1487 42.8632 82.8775 42.8632ZM48.0737 45.5291C46.8864 45.5291 45.9116 46.5038 45.9116 47.6911C45.9116 48.8784 46.8864 49.8531 48.0737 49.8531C49.261 49.8531 50.2357 48.8784 50.2357 47.6911C50.2357 46.5038 49.261 45.5291 48.0737 45.5291ZM44.3116 47.6911C44.3116 45.6202 46.0027 43.9291 48.0737 43.9291C50.1446 43.9291 51.8357 45.6202 51.8357 47.6911C51.8357 49.762 50.1446 51.4531 48.0737 51.4531C46.0027 51.4531 44.3116 49.762 44.3116 47.6911ZM84.3585 45.5291C83.1712 45.5291 82.1965 46.5038 82.1965 47.6911C82.1965 48.8784 83.1712 49.8531 84.3585 49.8531C85.5458 49.8531 86.5205 48.8784 86.5205 47.6911C86.5205 46.5038 85.5458 45.5291 84.3585 45.5291ZM80.5965 47.6911C80.5965 45.6202 82.2876 43.9291 84.3585 43.9291C86.4294 43.9291 88.1205 45.6202 88.1205 47.6911C88.1205 49.762 86.4294 51.4531 84.3585 51.4531C82.2876 51.4531 80.5965 49.762 80.5965 47.6911ZM41.5611 73.5386C41.6566 73.7745 41.9031 74.1507 42.3664 74.6511C42.821 75.1422 43.4447 75.7107 44.2353 76.3307C45.8157 77.5699 48.0273 78.9861 50.8011 80.373C54.4997 82.2224 59.9163 83.1765 65.4015 83.1765C70.8868 83.1765 76.3033 82.2224 80.002 80.373C82.7758 78.9861 84.9873 77.5699 86.5677 76.3307C87.3584 75.7107 87.982 75.1422 88.4366 74.6511C88.9026 74.1478 89.1493 73.7701 89.2435 73.5345L89.2513 73.5152L89.26 73.4964C90.3373 71.1622 92.8694 70.2783 95.1609 71.1596L95.1852 71.169L95.2089 71.1799C97.5431 72.2572 98.427 74.7894 97.5457 77.0808L97.5408 77.0935L97.5355 77.1061C96.4127 79.7526 93.9729 82.0795 91.4052 83.9725C88.8174 85.8803 85.9958 87.4213 83.9862 88.4633L83.9843 88.4643C78.9448 91.0605 72.141 92.2557 65.4015 92.2557C58.6663 92.2557 51.867 91.062 46.8283 88.4693C44.8006 87.4924 41.9806 85.951 39.3948 84.0258C36.8286 82.1152 34.3958 79.7559 33.2723 77.1172C32.2083 74.7951 33.2693 72.0881 35.6178 71.1691C37.9433 70.1114 40.6507 71.1812 41.5611 73.5386ZM40.07 74.1188C39.5004 72.6376 37.7825 71.9321 36.2646 72.6327L36.2409 72.6436L36.2166 72.653C34.7354 73.2226 34.0299 74.9405 34.7304 76.4584L34.7356 76.4697L34.7405 76.4812C35.6926 78.7254 37.8477 80.8792 40.3503 82.7425C42.8329 84.5908 45.5618 86.0837 47.5321 87.0323L47.5418 87.037L47.5514 87.0419C52.2865 89.4812 58.8119 90.6557 65.4015 90.6557C71.9905 90.6557 78.5153 89.4815 83.2503 87.0426C85.2394 86.0112 87.9713 84.5163 90.4558 82.6847C92.9557 80.8416 95.1037 78.7301 96.0571 76.494C96.6457 74.9468 96.0571 73.3475 94.562 72.6437C93.016 72.0616 91.4205 72.654 90.7202 74.1506C90.5155 74.6494 90.1185 75.1896 89.6107 75.7381C89.0842 76.3069 88.3934 76.9324 87.555 77.5898C85.8771 78.9054 83.5716 80.3771 80.7175 81.8041C76.7149 83.8054 71.0239 84.7765 65.4015 84.7765C59.7792 84.7765 54.0881 83.8054 50.0855 81.8041C47.2314 80.3771 44.9259 78.9054 43.2481 77.5898C42.4096 76.9324 41.7189 76.3069 41.1923 75.7381C40.6771 75.1816 40.2759 74.6336 40.0739 74.1287L40.07 74.1188Z" fill="#9E6D74"/>
</svg>
