<svg width="78" height="129" viewBox="0 0 78 129" fill="none" xmlns="http://www.w3.org/2000/svg">
<path d="M44.892 9.54579C46.44 9.54579 47.73 10.8358 47.472 12.6418L41.538 50.0518C41.28 51.5998 42.57 53.1478 44.118 53.1478H64.758C66.822 53.1478 67.854 55.2118 67.08 57.0178L34.83 117.906C34.314 118.938 33.54 119.196 32.508 119.196C30.96 119.196 29.67 117.906 29.928 116.1L35.862 78.9478C36.12 77.3998 34.83 75.8518 33.282 75.8518H12.642C10.578 75.8518 9.54597 73.7878 10.32 71.9818L42.312 10.5778C43.086 10.0618 43.86 9.54579 44.892 9.54579ZM44.892 1.80579C41.022 1.80579 37.668 3.86979 35.862 7.48179L3.61196 68.8858C1.80597 72.2398 2.06397 75.8518 3.86997 78.9478C5.67597 82.0438 9.02997 83.8498 12.642 83.8498H27.348L22.446 115.068C21.93 118.164 22.704 121.002 24.768 123.324C26.832 125.646 29.67 126.936 32.766 126.936C36.636 126.936 39.99 124.872 41.796 121.26L73.788 59.8558C75.594 56.5018 75.336 52.8898 73.53 49.7938C71.724 46.6978 68.37 44.8918 64.758 44.8918H50.31L55.212 13.4158C55.728 10.3198 54.954 7.48179 52.89 5.15979C50.826 3.09579 47.988 1.80579 44.892 1.80579Z" fill="#9E6D74"/>
</svg>
