<svg width="64" height="64" viewBox="0 0 64 64" fill="none" xmlns="http://www.w3.org/2000/svg">
<path d="M15.1727 0V21.2237M49.1307 0V21.2237M21.5398 36.0804L30.0293 44.5699L44.886 27.5909M6.68323 10.6119H57.6202C58.746 10.6119 59.8257 11.0591 60.6217 11.8551C61.4178 12.6512 61.865 13.7308 61.865 14.8566V57.3041C61.865 58.4299 61.4178 59.5096 60.6217 60.3056C59.8257 61.1016 58.746 61.5489 57.6202 61.5489H6.68323C5.55745 61.5489 4.47778 61.1016 3.68173 60.3056C2.88569 59.5096 2.43848 58.4299 2.43848 57.3041V14.8566C2.43848 13.7308 2.88569 12.6512 3.68173 11.8551C4.47778 11.0591 5.55745 10.6119 6.68323 10.6119Z" stroke="#DD99A3" stroke-width="4.24475"/>
</svg>
